<svg xmlns="http://www.w3.org/2000/svg" width="120" height="120" id="egypt"><g fill-rule="evenodd" transform="translate(0 -932.362)"><circle cx="60" cy="992.362" r="60" fill="#424242"></circle><path fill="#fff" d="M18.036 952.492a1.02 1.02 0 1 0-.002 2.04 1.02 1.02 0 0 0 .002-2.04Zm4.113 0a1.02 1.02 0 1 0-.002 2.04 1.02 1.02 0 0 0 .002-2.04Zm4.083 0a1.02 1.02 0 1 0-.002 2.04 1.02 1.02 0 0 0 .002-2.04zm4.083 0a1.02 1.02 0 1 0-.002 2.04 1.02 1.02 0 0 0 .002-2.04zm4.083 0a1.02 1.02 0 1 0-.002 2.04 1.02 1.02 0 0 0 .002-2.04zm4.083 0a1.02 1.02 0 1 0-.002 2.04 1.02 1.02 0 0 0 .002-2.04zm4.083 0a1.02 1.02 0 1 0-.002 2.04 1.02 1.02 0 0 0 .002-2.04zm16.362 0a1.02 1.02 0 1 0-.002 2.04 1.02 1.02 0 0 0 .002-2.04Zm4.083 0a1.02 1.02 0 1 0-.002 2.04 1.02 1.02 0 0 0 .002-2.04Zm4.083 0a1.02 1.02 0 1 0-.002 2.04 1.02 1.02 0 0 0 .002-2.04Zm4.113 0a1.02 1.02 0 1 0-.002 2.04 1.02 1.02 0 0 0 .002-2.04zm4.083 0a1.02 1.02 0 1 0-.002 2.04 1.02 1.02 0 0 0 .002-2.04zm8.136 0a1.02 1.02 0 1 0 0 2.042c.564 0 1.05-.457 1.05-1.021 0-.565-.486-1.021-1.05-1.021Zm8.196 0a1.02 1.02 0 1 0-.002 2.04 1.02 1.02 0 0 0 .002-2.04zm-44.943 4.083a1.02 1.02 0 1 0-.002 2.04 1.02 1.02 0 0 0 .002-2.04zm49.026 0a1.02 1.02 0 1 0-.002 2.04 1.02 1.02 0 0 0 .002-2.04zm-77.667.03a1.02 1.02 0 1 0-.002 2.04 1.02 1.02 0 0 0 .002-2.04zm4.113 0a1.02 1.02 0 1 0-.002 2.04 1.02 1.02 0 0 0 .002-2.04zm4.083 0a1.02 1.02 0 1 0-.002 2.04 1.02 1.02 0 0 0 .002-2.04zm4.083 0a1.02 1.02 0 1 0-.002 2.04 1.02 1.02 0 0 0 .002-2.04zm4.083 0a1.02 1.02 0 1 0-.002 2.04 1.02 1.02 0 0 0 .002-2.04zm4.083 0a1.02 1.02 0 1 0-.002 2.04 1.02 1.02 0 0 0 .002-2.04zm4.083 0a1.02 1.02 0 1 0-.002 2.04 1.02 1.02 0 0 0 .002-2.04zm8.196 0a1.02 1.02 0 1 0-.002 2.04 1.02 1.02 0 0 0 .002-2.04zm4.053 0a1.02 1.02 0 1 0-.002 2.04 1.02 1.02 0 0 0 .002-2.04zm4.113 0a1.02 1.02 0 1 0-.002 2.04 1.02 1.02 0 0 0 .002-2.04zm4.083 0a1.02 1.02 0 1 0-.002 2.04 1.02 1.02 0 0 0 .002-2.04zm4.083 0a1.02 1.02 0 1 0-.002 2.04 1.02 1.02 0 0 0 .002-2.04zm4.113 0a1.02 1.02 0 1 0-.002 2.04 1.02 1.02 0 0 0 .002-2.04zm4.083 0a1.02 1.02 0 1 0-.002 2.04 1.02 1.02 0 0 0 .002-2.04zm4.083 0a1.02 1.02 0 1 0-.002 2.04 1.02 1.02 0 0 0 .002-2.04zm4.053 0a1.02 1.02 0 1 0 0 2.042c.564 0 1.05-.457 1.05-1.021 0-.565-.486-1.02-1.05-1.02zm4.113 0a1.02 1.02 0 1 0-.002 2.04 1.02 1.02 0 0 0 .002-2.04zm4.083 0a1.02 1.02 0 1 0-.002 2.04 1.02 1.02 0 0 0 .002-2.04zm-44.943 4.053a1.02 1.02 0 1 0-.002 2.04 1.02 1.02 0 0 0 .002-2.04Zm49.026 0a1.02 1.02 0 1 0-.002 2.04 1.02 1.02 0 0 0 .002-2.04Zm-77.667.03a1.02 1.02 0 1 0-.002 2.04 1.02 1.02 0 0 0 .002-2.04zm4.113 0a1.02 1.02 0 1 0-.002 2.04 1.02 1.02 0 0 0 .002-2.04zm4.083 0a1.02 1.02 0 1 0-.002 2.04 1.02 1.02 0 0 0 .002-2.04zm4.083 0a1.02 1.02 0 1 0-.002 2.04 1.02 1.02 0 0 0 .002-2.04zm4.083 0a1.02 1.02 0 1 0-.002 2.04 1.02 1.02 0 0 0 .002-2.04zm4.083 0a1.02 1.02 0 1 0-.002 2.04 1.02 1.02 0 0 0 .002-2.04zm4.083 0a1.02 1.02 0 1 0-.002 2.04 1.02 1.02 0 0 0 .002-2.04zm8.196 0a1.02 1.02 0 1 0-.002 2.04 1.02 1.02 0 0 0 .002-2.04zm4.053 0a1.02 1.02 0 1 0-.002 2.04 1.02 1.02 0 0 0 .002-2.04zm4.113 0a1.02 1.02 0 1 0-.002 2.04 1.02 1.02 0 0 0 .002-2.04zm4.083 0a1.02 1.02 0 1 0-.002 2.04 1.02 1.02 0 0 0 .002-2.04zm4.083 0a1.02 1.02 0 1 0-.002 2.04 1.02 1.02 0 0 0 .002-2.04zm4.113 0a1.02 1.02 0 1 0-.002 2.04 1.02 1.02 0 0 0 .002-2.04zm4.083 0a1.02 1.02 0 1 0-.002 2.04 1.02 1.02 0 0 0 .002-2.04zm4.083 0a1.02 1.02 0 1 0-.002 2.04 1.02 1.02 0 0 0 .002-2.04zm4.053 0a1.02 1.02 0 1 0 0 2.042c.564 0 1.05-.457 1.05-1.021 0-.565-.486-1.02-1.05-1.02zm4.113 0a1.02 1.02 0 1 0-.002 2.04 1.02 1.02 0 0 0 .002-2.04zm4.083 0a1.02 1.02 0 1 0-.002 2.04 1.02 1.02 0 0 0 .002-2.04zm-44.943 4.083a1.02 1.02 0 1 0-.002 2.04 1.02 1.02 0 0 0 .002-2.04zm49.026 0a1.02 1.02 0 1 0-.002 2.04 1.02 1.02 0 0 0 .002-2.04zm4.083 0a1.02 1.02 0 1 0-.002 2.04 1.02 1.02 0 0 0 .002-2.04zm-81.75.03a1.02 1.02 0 1 0-.002 2.04 1.02 1.02 0 0 0 .002-2.04zm4.113 0a1.02 1.02 0 1 0-.002 2.04 1.02 1.02 0 0 0 .002-2.04zm4.083 0a1.02 1.02 0 1 0-.002 2.04 1.02 1.02 0 0 0 .002-2.04zm4.083 0a1.02 1.02 0 1 0-.002 2.04 1.02 1.02 0 0 0 .002-2.04zm4.083 0a1.02 1.02 0 1 0-.002 2.04 1.02 1.02 0 0 0 .002-2.04zm4.083 0a1.02 1.02 0 1 0-.002 2.04 1.02 1.02 0 0 0 .002-2.04zm4.083 0a1.02 1.02 0 1 0-.002 2.04 1.02 1.02 0 0 0 .002-2.04zm8.196 0a1.02 1.02 0 1 0-.002 2.04 1.02 1.02 0 0 0 .002-2.04zm4.053 0a1.02 1.02 0 1 0-.002 2.04 1.02 1.02 0 0 0 .002-2.04zm4.113 0a1.02 1.02 0 1 0-.002 2.04 1.02 1.02 0 0 0 .002-2.04zm4.083 0a1.02 1.02 0 1 0-.002 2.04 1.02 1.02 0 0 0 .002-2.04zm4.083 0a1.02 1.02 0 1 0-.002 2.04 1.02 1.02 0 0 0 .002-2.04zm4.113 0a1.02 1.02 0 1 0-.002 2.04 1.02 1.02 0 0 0 .002-2.04zm4.083 0a1.02 1.02 0 1 0-.002 2.04 1.02 1.02 0 0 0 .002-2.04zm4.083 0a1.02 1.02 0 1 0-.002 2.04 1.02 1.02 0 0 0 .002-2.04zm4.053 0a1.02 1.02 0 1 0 0 2.042c.564 0 1.05-.457 1.05-1.021 0-.565-.486-1.02-1.05-1.02zm4.113 0a1.02 1.02 0 1 0-.002 2.04 1.02 1.02 0 0 0 .002-2.04zm4.083 0a1.02 1.02 0 1 0-.002 2.04 1.02 1.02 0 0 0 .002-2.04zm-44.943 3.993a1.02 1.02 0 1 0-.002 2.04 1.02 1.02 0 0 0 .002-2.04zm49.026 0a1.02 1.02 0 1 0-.002 2.04 1.02 1.02 0 0 0 .002-2.04zm-77.667.03a1.02 1.02 0 1 0-.002 2.04 1.02 1.02 0 0 0 .002-2.04Zm4.113 0a1.02 1.02 0 1 0-.002 2.04 1.02 1.02 0 0 0 .002-2.04zm4.083 0a1.02 1.02 0 1 0-.002 2.04 1.02 1.02 0 0 0 .002-2.04zm4.083 0a1.02 1.02 0 1 0-.002 2.04 1.02 1.02 0 0 0 .002-2.04zm4.083 0a1.02 1.02 0 1 0-.002 2.04 1.02 1.02 0 0 0 .002-2.04zm4.083 0a1.02 1.02 0 1 0-.002 2.04 1.02 1.02 0 0 0 .002-2.04zm4.083 0a1.02 1.02 0 1 0-.002 2.04 1.02 1.02 0 0 0 .002-2.04zm8.196 0a1.02 1.02 0 1 0-.002 2.04 1.02 1.02 0 0 0 .002-2.04zm4.053 0a1.02 1.02 0 1 0-.002 2.04 1.02 1.02 0 0 0 .002-2.04zm4.113 0a1.02 1.02 0 1 0-.002 2.04 1.02 1.02 0 0 0 .002-2.04zm4.083 0a1.02 1.02 0 1 0-.002 2.04 1.02 1.02 0 0 0 .002-2.04zm4.083 0a1.02 1.02 0 1 0-.002 2.04 1.02 1.02 0 0 0 .002-2.04zm4.113 0a1.02 1.02 0 1 0-.002 2.04 1.02 1.02 0 0 0 .002-2.04zm4.083 0a1.02 1.02 0 1 0-.002 2.04 1.02 1.02 0 0 0 .002-2.04zm4.083 0a1.02 1.02 0 1 0-.002 2.04 1.02 1.02 0 0 0 .002-2.04zm4.053 0a1.02 1.02 0 1 0 0 2.042c.564 0 1.05-.457 1.05-1.021 0-.565-.486-1.02-1.05-1.02zm4.113 0a1.02 1.02 0 1 0-.002 2.04 1.02 1.02 0 0 0 .002-2.04zm4.083 0a1.02 1.02 0 1 0-.002 2.04 1.02 1.02 0 0 0 .002-2.04zm-44.943 4.083a1.02 1.02 0 1 0-.002 2.04 1.02 1.02 0 0 0 .002-2.04zm49.026 0a1.02 1.02 0 1 0-.002 2.04 1.02 1.02 0 0 0 .002-2.04zm-73.554.03a1.02 1.02 0 1 0-.002 2.04 1.02 1.02 0 0 0 .002-2.04zm4.083 0a1.02 1.02 0 1 0-.002 2.04 1.02 1.02 0 0 0 .002-2.04zm4.083 0a1.02 1.02 0 1 0-.002 2.04 1.02 1.02 0 0 0 .002-2.04zm4.083 0a1.02 1.02 0 1 0-.002 2.04 1.02 1.02 0 0 0 .002-2.04zm4.083 0a1.02 1.02 0 1 0-.002 2.04 1.02 1.02 0 0 0 .002-2.04zm4.083 0a1.02 1.02 0 1 0-.002 2.04 1.02 1.02 0 0 0 .002-2.04zm8.196 0a1.02 1.02 0 1 0-.002 2.04 1.02 1.02 0 0 0 .002-2.04zm4.053 0a1.02 1.02 0 1 0-.002 2.04 1.02 1.02 0 0 0 .002-2.04zm4.113 0a1.02 1.02 0 1 0-.002 2.04 1.02 1.02 0 0 0 .002-2.04zm4.083 0a1.02 1.02 0 1 0-.002 2.04 1.02 1.02 0 0 0 .002-2.04zm4.083 0a1.02 1.02 0 1 0-.002 2.04 1.02 1.02 0 0 0 .002-2.04zm4.113 0a1.02 1.02 0 1 0-.002 2.04 1.02 1.02 0 0 0 .002-2.04zm4.083 0a1.02 1.02 0 1 0-.002 2.04 1.02 1.02 0 0 0 .002-2.04zm4.083 0a1.02 1.02 0 1 0-.002 2.04 1.02 1.02 0 0 0 .002-2.04zm8.166 0a1.02 1.02 0 1 0-.002 2.04 1.02 1.02 0 0 0 .002-2.04zm4.083 0a1.02 1.02 0 1 0-.002 2.04 1.02 1.02 0 0 0 .002-2.04zm-44.943 4.053a1.02 1.02 0 1 0-.002 2.04 1.02 1.02 0 0 0 .002-2.04Zm49.026 0a1.02 1.02 0 1 0-.002 2.04 1.02 1.02 0 0 0 .002-2.04zm-73.554.03a1.02 1.02 0 1 0-.002 2.04 1.02 1.02 0 0 0 .002-2.04zm4.083 0a1.02 1.02 0 1 0-.002 2.04 1.02 1.02 0 0 0 .002-2.04zm4.083 0a1.02 1.02 0 1 0-.002 2.04 1.02 1.02 0 0 0 .002-2.04zm4.083 0a1.02 1.02 0 1 0-.002 2.04 1.02 1.02 0 0 0 .002-2.04zm4.083 0a1.02 1.02 0 1 0-.002 2.04 1.02 1.02 0 0 0 .002-2.04zm4.083 0a1.02 1.02 0 1 0-.002 2.04 1.02 1.02 0 0 0 .002-2.04zm8.196 0a1.02 1.02 0 1 0-.002 2.04 1.02 1.02 0 0 0 .002-2.04zm4.053 0a1.02 1.02 0 1 0-.002 2.04 1.02 1.02 0 0 0 .002-2.04zm4.113 0a1.02 1.02 0 1 0-.002 2.04 1.02 1.02 0 0 0 .002-2.04zm4.083 0a1.02 1.02 0 1 0-.002 2.04 1.02 1.02 0 0 0 .002-2.04zm4.083 0a1.02 1.02 0 1 0-.002 2.04 1.02 1.02 0 0 0 .002-2.04zm4.113 0a1.02 1.02 0 1 0-.002 2.04 1.02 1.02 0 0 0 .002-2.04zm4.083 0a1.02 1.02 0 1 0-.002 2.04 1.02 1.02 0 0 0 .002-2.04zm4.083 0a1.02 1.02 0 1 0-.002 2.04 1.02 1.02 0 0 0 .002-2.04zm4.053 0a1.02 1.02 0 1 0 0 2.042c.564 0 1.05-.457 1.05-1.021 0-.564-.486-1.02-1.05-1.02zm8.196 0a1.02 1.02 0 1 0-.002 2.04 1.02 1.02 0 0 0 .002-2.04zm-44.943 4.083a1.02 1.02 0 1 0-.002 2.04 1.02 1.02 0 0 0 .002-2.04zm49.026 0a1.02 1.02 0 1 0-.002 2.04 1.02 1.02 0 0 0 .002-2.04zm-73.554.03a1.02 1.02 0 1 0-.002 2.04 1.02 1.02 0 0 0 .002-2.04zm4.083 0a1.02 1.02 0 1 0-.002 2.04 1.02 1.02 0 0 0 .002-2.04zm4.083 0a1.02 1.02 0 1 0-.002 2.04 1.02 1.02 0 0 0 .002-2.04zm4.083 0a1.02 1.02 0 1 0-.002 2.04 1.02 1.02 0 0 0 .002-2.04zm4.083 0a1.02 1.02 0 1 0-.002 2.04 1.02 1.02 0 0 0 .002-2.04zm4.083 0a1.02 1.02 0 1 0-.002 2.04 1.02 1.02 0 0 0 .002-2.04zm8.196 0a1.02 1.02 0 1 0-.002 2.04 1.02 1.02 0 0 0 .002-2.04zm4.053 0a1.02 1.02 0 1 0-.002 2.04 1.02 1.02 0 0 0 .002-2.04zm4.113 0a1.02 1.02 0 1 0-.002 2.04 1.02 1.02 0 0 0 .002-2.04zm4.083 0a1.02 1.02 0 1 0-.002 2.04 1.02 1.02 0 0 0 .002-2.04zm4.083 0a1.02 1.02 0 1 0-.002 2.04 1.02 1.02 0 0 0 .002-2.04zm4.113 0a1.02 1.02 0 1 0-.002 2.04 1.02 1.02 0 0 0 .002-2.04zm4.083 0a1.02 1.02 0 1 0-.002 2.04 1.02 1.02 0 0 0 .002-2.04zm4.083 0a1.02 1.02 0 1 0-.002 2.04 1.02 1.02 0 0 0 .002-2.04zm4.053 0a1.02 1.02 0 1 0 0 2.042c.564 0 1.05-.457 1.05-1.021 0-.564-.486-1.02-1.05-1.02zm4.113 0a1.02 1.02 0 1 0-.002 2.04 1.02 1.02 0 0 0 .002-2.04zm-40.86 4.023a1.02 1.02 0 1 0-.002 2.04 1.02 1.02 0 0 0 .002-2.04zm-24.528.03a1.02 1.02 0 1 0-.002 2.04 1.02 1.02 0 0 0 .002-2.04zm4.083 0a1.02 1.02 0 1 0-.002 2.04 1.02 1.02 0 0 0 .002-2.04zm4.083 0a1.02 1.02 0 1 0-.002 2.04 1.02 1.02 0 0 0 .002-2.04zm4.083 0a1.02 1.02 0 1 0-.002 2.04 1.02 1.02 0 0 0 .002-2.04zm4.083 0a1.02 1.02 0 1 0-.002 2.04 1.02 1.02 0 0 0 .002-2.04zm4.083 0a1.02 1.02 0 1 0-.002 2.04 1.02 1.02 0 0 0 .002-2.04zm8.196 0a1.02 1.02 0 1 0-.002 2.04 1.02 1.02 0 0 0 .002-2.04zm4.053 0a1.02 1.02 0 1 0-.002 2.04 1.02 1.02 0 0 0 .002-2.04zm4.113 0a1.02 1.02 0 1 0-.002 2.04 1.02 1.02 0 0 0 .002-2.04zm4.083 0a1.02 1.02 0 1 0-.002 2.04 1.02 1.02 0 0 0 .002-2.04zm4.083 0a1.02 1.02 0 1 0-.002 2.04 1.02 1.02 0 0 0 .002-2.04zm4.113 0a1.02 1.02 0 1 0-.002 2.04 1.02 1.02 0 0 0 .002-2.04zm4.083 0a1.02 1.02 0 1 0-.002 2.04 1.02 1.02 0 0 0 .002-2.04zm4.083 0a1.02 1.02 0 1 0-.002 2.04 1.02 1.02 0 0 0 .002-2.04zm4.053 0a1.02 1.02 0 1 0 0 2.042c.564 0 1.05-.457 1.05-1.021 0-.564-.486-1.02-1.05-1.02zm4.113 0a1.02 1.02 0 1 0-.002 2.04 1.02 1.02 0 0 0 .002-2.04zm4.083 0a1.02 1.02 0 1 0-.002 2.04 1.02 1.02 0 0 0 .002-2.04zm-44.943 4.083a1.02 1.02 0 1 0-.002 2.04 1.02 1.02 0 0 0 .002-2.04zm-24.528.03a1.02 1.02 0 1 0-.002 2.04 1.02 1.02 0 0 0 .002-2.04zm4.083 0a1.02 1.02 0 1 0-.002 2.04 1.02 1.02 0 0 0 .002-2.04zm4.083 0a1.02 1.02 0 1 0-.002 2.04 1.02 1.02 0 0 0 .002-2.04zm4.083 0a1.02 1.02 0 1 0-.002 2.04 1.02 1.02 0 0 0 .002-2.04zm4.083 0a1.02 1.02 0 1 0-.002 2.04 1.02 1.02 0 0 0 .002-2.04zm4.083 0a1.02 1.02 0 1 0-.002 2.04 1.02 1.02 0 0 0 .002-2.04zm8.196 0a1.02 1.02 0 1 0-.002 2.04 1.02 1.02 0 0 0 .002-2.04zm4.053 0a1.02 1.02 0 1 0-.002 2.04 1.02 1.02 0 0 0 .002-2.04zm4.113 0a1.02 1.02 0 1 0-.002 2.04 1.02 1.02 0 0 0 .002-2.04zm4.083 0a1.02 1.02 0 1 0-.002 2.04 1.02 1.02 0 0 0 .002-2.04zm4.083 0a1.02 1.02 0 1 0-.002 2.04 1.02 1.02 0 0 0 .002-2.04zm4.113 0a1.02 1.02 0 1 0-.002 2.04 1.02 1.02 0 0 0 .002-2.04zm4.083 0a1.02 1.02 0 1 0-.002 2.04 1.02 1.02 0 0 0 .002-2.04zm4.083 0a1.02 1.02 0 1 0-.002 2.04 1.02 1.02 0 0 0 .002-2.04zm4.053 0a1.02 1.02 0 1 0 0 2.042c.564 0 1.05-.457 1.05-1.021 0-.564-.486-1.02-1.05-1.02zm4.113 0a1.02 1.02 0 1 0-.002 2.04 1.02 1.02 0 0 0 .002-2.04zm4.083 0a1.02 1.02 0 1 0-.002 2.04 1.02 1.02 0 0 0 .002-2.04zm-44.943 4.053a1.02 1.02 0 1 0-.002 2.04 1.02 1.02 0 0 0 .002-2.04zm49.026 0a1.02 1.02 0 1 0-.002 2.04 1.02 1.02 0 0 0 .002-2.04zm-73.554.03a1.02 1.02 0 1 0-.002 2.04 1.02 1.02 0 0 0 .002-2.04zm4.083 0a1.02 1.02 0 1 0-.002 2.04 1.02 1.02 0 0 0 .002-2.04zm4.083 0a1.02 1.02 0 1 0-.002 2.04 1.02 1.02 0 0 0 .002-2.04zm4.083 0a1.02 1.02 0 1 0-.002 2.04 1.02 1.02 0 0 0 .002-2.04zm4.083 0a1.02 1.02 0 1 0-.002 2.04 1.02 1.02 0 0 0 .002-2.04zm4.083 0a1.02 1.02 0 1 0-.002 2.04 1.02 1.02 0 0 0 .002-2.04zm8.196 0a1.02 1.02 0 1 0-.002 2.04 1.02 1.02 0 0 0 .002-2.04zm4.053 0a1.02 1.02 0 1 0-.002 2.04 1.02 1.02 0 0 0 .002-2.04zm4.113 0a1.02 1.02 0 1 0-.002 2.04 1.02 1.02 0 0 0 .002-2.04zm4.083 0a1.02 1.02 0 1 0-.002 2.04 1.02 1.02 0 0 0 .002-2.04zm4.083 0a1.02 1.02 0 1 0-.002 2.04 1.02 1.02 0 0 0 .002-2.04zm4.113 0a1.02 1.02 0 1 0-.002 2.04 1.02 1.02 0 0 0 .002-2.04zm4.083 0a1.02 1.02 0 1 0-.002 2.04 1.02 1.02 0 0 0 .002-2.04zm4.083 0a1.02 1.02 0 1 0-.002 2.04 1.02 1.02 0 0 0 .002-2.04zm4.053 0a1.02 1.02 0 1 0 0 2.042c.564 0 1.05-.457 1.05-1.021 0-.564-.486-1.02-1.05-1.02zm4.113 0a1.02 1.02 0 1 0-.002 2.04 1.02 1.02 0 0 0 .002-2.04zm4.083 0a1.02 1.02 0 1 0-.002 2.04 1.02 1.02 0 0 0 .002-2.04zm-44.943 4.083a1.02 1.02 0 1 0-.002 2.04 1.02 1.02 0 0 0 .002-2.04zm49.026 0a1.02 1.02 0 1 0-.002 2.04 1.02 1.02 0 0 0 .002-2.04zm4.083 0a1.02 1.02 0 1 0-.002 2.04 1.02 1.02 0 0 0 .002-2.04zm-77.637.03a1.02 1.02 0 1 0-.002 2.04 1.02 1.02 0 0 0 .002-2.04zm4.083 0a1.02 1.02 0 1 0-.002 2.04 1.02 1.02 0 0 0 .002-2.04zm4.083 0a1.02 1.02 0 1 0-.002 2.04 1.02 1.02 0 0 0 .002-2.04zm4.083 0a1.02 1.02 0 1 0-.002 2.04 1.02 1.02 0 0 0 .002-2.04zm4.083 0a1.02 1.02 0 1 0-.002 2.04 1.02 1.02 0 0 0 .002-2.04zm4.083 0a1.02 1.02 0 1 0-.002 2.04 1.02 1.02 0 0 0 .002-2.04zm8.196 0a1.02 1.02 0 1 0-.002 2.04 1.02 1.02 0 0 0 .002-2.04zm4.053 0a1.02 1.02 0 1 0-.002 2.04 1.02 1.02 0 0 0 .002-2.04zm4.113 0a1.02 1.02 0 1 0-.002 2.04 1.02 1.02 0 0 0 .002-2.04zm4.083 0a1.02 1.02 0 1 0-.002 2.04 1.02 1.02 0 0 0 .002-2.04zm4.083 0a1.02 1.02 0 1 0-.002 2.04 1.02 1.02 0 0 0 .002-2.04zm4.113 0a1.02 1.02 0 1 0-.002 2.04 1.02 1.02 0 0 0 .002-2.04zm4.083 0a1.02 1.02 0 1 0-.002 2.04 1.02 1.02 0 0 0 .002-2.04zm4.083 0a1.02 1.02 0 1 0-.002 2.04 1.02 1.02 0 0 0 .002-2.04zm4.053 0a1.02 1.02 0 1 0 0 2.042c.564 0 1.05-.457 1.05-1.021 0-.564-.486-1.02-1.05-1.02zm4.113 0a1.02 1.02 0 1 0-.002 2.04 1.02 1.02 0 0 0 .002-2.04zm4.083 0a1.02 1.02 0 1 0-.002 2.04 1.02 1.02 0 0 0 .002-2.04zm-44.943 4.023a1.02 1.02 0 1 0-.002 2.04 1.02 1.02 0 0 0 .002-2.04zm49.026 0a1.02 1.02 0 1 0-.002 2.04 1.02 1.02 0 0 0 .002-2.04zm4.083 0a1.02 1.02 0 1 0-.002 2.04 1.02 1.02 0 0 0 .002-2.04zm-77.637.03a1.02 1.02 0 1 0-.002 2.04 1.02 1.02 0 0 0 .002-2.04zm4.083 0a1.02 1.02 0 1 0-.002 2.04 1.02 1.02 0 0 0 .002-2.04zm4.083 0a1.02 1.02 0 1 0-.002 2.04 1.02 1.02 0 0 0 .002-2.04zm4.083 0a1.02 1.02 0 1 0-.002 2.04 1.02 1.02 0 0 0 .002-2.04zm4.083 0a1.02 1.02 0 1 0-.002 2.04 1.02 1.02 0 0 0 .002-2.04zm4.083 0a1.02 1.02 0 1 0-.002 2.04 1.02 1.02 0 0 0 .002-2.04zm8.196 0a1.02 1.02 0 1 0-.002 2.04 1.02 1.02 0 0 0 .002-2.04zm4.053 0a1.02 1.02 0 1 0-.002 2.04 1.02 1.02 0 0 0 .002-2.04zm4.113 0a1.02 1.02 0 1 0-.002 2.04 1.02 1.02 0 0 0 .002-2.04zm4.083 0a1.02 1.02 0 1 0-.002 2.04 1.02 1.02 0 0 0 .002-2.04zm4.083 0a1.02 1.02 0 1 0-.002 2.04 1.02 1.02 0 0 0 .002-2.04zm4.113 0a1.02 1.02 0 1 0-.002 2.04 1.02 1.02 0 0 0 .002-2.04zm4.083 0a1.02 1.02 0 1 0-.002 2.04 1.02 1.02 0 0 0 .002-2.04zm4.083 0a1.02 1.02 0 1 0-.002 2.04 1.02 1.02 0 0 0 .002-2.04zm4.053 0a1.02 1.02 0 1 0 0 2.042c.564 0 1.05-.457 1.05-1.021 0-.564-.486-1.02-1.05-1.02zm4.113 0a1.02 1.02 0 1 0-.002 2.04 1.02 1.02 0 0 0 .002-2.04zm4.083 0a1.02 1.02 0 1 0-.002 2.04 1.02 1.02 0 0 0 .002-2.04zm-44.943 4.083a1.02 1.02 0 1 0-.002 2.04 1.02 1.02 0 0 0 .002-2.04zm49.026 0a1.02 1.02 0 1 0-.002 2.04 1.02 1.02 0 0 0 .002-2.04zm4.083 0a1.02 1.02 0 1 0-.002 2.04 1.02 1.02 0 0 0 .002-2.04zm4.083 0a1.02 1.02 0 1 0-.002 2.04 1.02 1.02 0 0 0 .002-2.04zm-81.72.03a1.02 1.02 0 1 0-.002 2.04 1.02 1.02 0 0 0 .002-2.04zm4.083 0a1.02 1.02 0 1 0-.002 2.04 1.02 1.02 0 0 0 .002-2.04zm4.083 0a1.02 1.02 0 1 0-.002 2.04 1.02 1.02 0 0 0 .002-2.04zm4.083 0a1.02 1.02 0 1 0-.002 2.04 1.02 1.02 0 0 0 .002-2.04zm4.083 0a1.02 1.02 0 1 0-.002 2.04 1.02 1.02 0 0 0 .002-2.04zm4.083 0a1.02 1.02 0 1 0-.002 2.04 1.02 1.02 0 0 0 .002-2.04zm8.196 0a1.02 1.02 0 1 0-.002 2.04 1.02 1.02 0 0 0 .002-2.04zm4.053 0a1.02 1.02 0 1 0-.002 2.04 1.02 1.02 0 0 0 .002-2.04zm4.113 0a1.02 1.02 0 1 0-.002 2.04 1.02 1.02 0 0 0 .002-2.04zm4.083 0a1.02 1.02 0 1 0-.002 2.04 1.02 1.02 0 0 0 .002-2.04zm4.083 0a1.02 1.02 0 1 0-.002 2.04 1.02 1.02 0 0 0 .002-2.04zm4.113 0a1.02 1.02 0 1 0-.002 2.04 1.02 1.02 0 0 0 .002-2.04zm4.083 0a1.02 1.02 0 1 0-.002 2.04 1.02 1.02 0 0 0 .002-2.04zm4.083 0a1.02 1.02 0 1 0-.002 2.04 1.02 1.02 0 0 0 .002-2.04zm4.053 0a1.02 1.02 0 1 0 0 2.042c.564 0 1.05-.457 1.05-1.02 0-.565-.486-1.022-1.05-1.022zm4.113 0a1.02 1.02 0 1 0-.002 2.04 1.02 1.02 0 0 0 .002-2.04zm4.083 0a1.02 1.02 0 1 0-.002 2.04 1.02 1.02 0 0 0 .002-2.04zm-44.943 4.053a1.02 1.02 0 1 0-.002 2.04 1.02 1.02 0 0 0 .002-2.04zm49.026 0a1.02 1.02 0 1 0-.002 2.04 1.02 1.02 0 0 0 .002-2.04zm4.083 0a1.02 1.02 0 1 0-.002 2.04 1.02 1.02 0 0 0 .002-2.04zm4.083 0a1.02 1.02 0 1 0-.002 2.04 1.02 1.02 0 0 0 .002-2.04zm-81.72.03a1.02 1.02 0 1 0-.002 2.04 1.02 1.02 0 0 0 .002-2.04zm4.083 0a1.02 1.02 0 1 0-.002 2.04 1.02 1.02 0 0 0 .002-2.04zm4.083 0a1.02 1.02 0 1 0-.002 2.04 1.02 1.02 0 0 0 .002-2.04zm4.083 0a1.02 1.02 0 1 0-.002 2.04 1.02 1.02 0 0 0 .002-2.04zm4.083 0a1.02 1.02 0 1 0-.002 2.04 1.02 1.02 0 0 0 .002-2.04zm4.083 0a1.02 1.02 0 1 0-.002 2.04 1.02 1.02 0 0 0 .002-2.04zm8.196 0a1.02 1.02 0 1 0-.002 2.04 1.02 1.02 0 0 0 .002-2.04zm4.053 0a1.02 1.02 0 1 0-.002 2.04 1.02 1.02 0 0 0 .002-2.04zm4.113 0a1.02 1.02 0 1 0-.002 2.04 1.02 1.02 0 0 0 .002-2.04zm4.083 0a1.02 1.02 0 1 0-.002 2.04 1.02 1.02 0 0 0 .002-2.04zm4.083 0a1.02 1.02 0 1 0-.002 2.04 1.02 1.02 0 0 0 .002-2.04zm4.113 0a1.02 1.02 0 1 0-.002 2.04 1.02 1.02 0 0 0 .002-2.04zm4.083 0a1.02 1.02 0 1 0-.002 2.04 1.02 1.02 0 0 0 .002-2.04zm4.083 0a1.02 1.02 0 1 0-.002 2.04 1.02 1.02 0 0 0 .002-2.04zm4.053 0a1.02 1.02 0 1 0 0 2.042c.564 0 1.05-.456 1.05-1.02 0-.565-.486-1.022-1.05-1.022zm4.113 0a1.02 1.02 0 1 0-.002 2.04 1.02 1.02 0 0 0 .002-2.04zm4.083 0a1.02 1.02 0 1 0-.002 2.04 1.02 1.02 0 0 0 .002-2.04zm20.445 4.053a1.02 1.02 0 1 0-.001 2.04 1.02 1.02 0 0 0 .001-2.04zm-65.388.03a1.02 1.02 0 1 0-.002 2.04 1.02 1.02 0 0 0 .002-2.04zm49.026 0a1.02 1.02 0 1 0-.002 2.04 1.02 1.02 0 0 0 .002-2.04zm4.083 0a1.02 1.02 0 1 0-.002 2.04 1.02 1.02 0 0 0 .002-2.04zm4.083 0a1.02 1.02 0 1 0-.002 2.04 1.02 1.02 0 0 0 .002-2.04zm4.083 0a1.02 1.02 0 1 0-.001 2.04 1.02 1.02 0 0 0 .001-2.04zm-85.803.03a1.02 1.02 0 1 0-.002 2.04 1.02 1.02 0 0 0 .002-2.04zm4.083 0a1.02 1.02 0 1 0-.002 2.04 1.02 1.02 0 0 0 .002-2.04zm4.083 0a1.02 1.02 0 1 0-.002 2.04 1.02 1.02 0 0 0 .002-2.04zm4.083 0a1.02 1.02 0 1 0-.002 2.04 1.02 1.02 0 0 0 .002-2.04zm4.083 0a1.02 1.02 0 1 0-.002 2.04 1.02 1.02 0 0 0 .002-2.04zm4.083 0a1.02 1.02 0 1 0-.002 2.04 1.02 1.02 0 0 0 .002-2.04zm8.196 0a1.02 1.02 0 1 0-.002 2.04 1.02 1.02 0 0 0 .002-2.04zm4.053 0a1.02 1.02 0 1 0-.002 2.04 1.02 1.02 0 0 0 .002-2.04zm4.113 0a1.02 1.02 0 1 0-.002 2.04 1.02 1.02 0 0 0 .002-2.04zm4.083 0a1.02 1.02 0 1 0-.002 2.04 1.02 1.02 0 0 0 .002-2.04zm4.083 0a1.02 1.02 0 1 0-.002 2.04 1.02 1.02 0 0 0 .002-2.04zm4.113 0a1.02 1.02 0 1 0-.002 2.04 1.02 1.02 0 0 0 .002-2.04zm4.083 0a1.02 1.02 0 1 0-.002 2.04 1.02 1.02 0 0 0 .002-2.04zm4.083 0a1.02 1.02 0 1 0-.002 2.04 1.02 1.02 0 0 0 .002-2.04zm4.053 0a1.02 1.02 0 1 0 0 2.042c.564 0 1.05-.456 1.05-1.02 0-.565-.486-1.022-1.05-1.022zm4.113 0a1.02 1.02 0 1 0-.002 2.04 1.02 1.02 0 0 0 .002-2.04zm4.083 0a1.02 1.02 0 1 0-.002 2.04 1.02 1.02 0 0 0 .002-2.04zm-44.943 3.993a1.02 1.02 0 1 0-.002 2.04 1.02 1.02 0 0 0 .002-2.04zm49.026 0a1.02 1.02 0 1 0-.002 2.04 1.02 1.02 0 0 0 .002-2.04zm4.083 0a1.02 1.02 0 1 0-.002 2.04 1.02 1.02 0 0 0 .002-2.04zm4.083 0a1.02 1.02 0 1 0-.002 2.04 1.02 1.02 0 0 0 .002-2.04zm4.083 0a1.02 1.02 0 1 0-.001 2.04 1.02 1.02 0 0 0 .001-2.04zm-85.803.03a1.02 1.02 0 1 0-.002 2.04 1.02 1.02 0 0 0 .002-2.04zm4.083 0a1.02 1.02 0 1 0-.002 2.04 1.02 1.02 0 0 0 .002-2.04zm4.083 0a1.02 1.02 0 1 0-.002 2.04 1.02 1.02 0 0 0 .002-2.04zm4.083 0a1.02 1.02 0 1 0-.002 2.04 1.02 1.02 0 0 0 .002-2.04zm4.083 0a1.02 1.02 0 1 0-.002 2.04 1.02 1.02 0 0 0 .002-2.04zm4.083 0a1.02 1.02 0 1 0-.002 2.04 1.02 1.02 0 0 0 .002-2.04zm8.196 0a1.02 1.02 0 1 0-.002 2.04 1.02 1.02 0 0 0 .002-2.04zm4.053 0a1.02 1.02 0 1 0-.002 2.04 1.02 1.02 0 0 0 .002-2.04zm4.113 0a1.02 1.02 0 1 0-.002 2.04 1.02 1.02 0 0 0 .002-2.04zm4.083 0a1.02 1.02 0 1 0-.002 2.04 1.02 1.02 0 0 0 .002-2.04zm4.083 0a1.02 1.02 0 1 0-.002 2.04 1.02 1.02 0 0 0 .002-2.04zm4.113 0a1.02 1.02 0 1 0-.002 2.04 1.02 1.02 0 0 0 .002-2.04zm4.083 0a1.02 1.02 0 1 0-.002 2.04 1.02 1.02 0 0 0 .002-2.04zm4.083 0a1.02 1.02 0 1 0-.002 2.04 1.02 1.02 0 0 0 .002-2.04zm4.053 0a1.02 1.02 0 1 0 0 2.042c.564 0 1.05-.456 1.05-1.02 0-.565-.486-1.022-1.05-1.022zm8.196 0a1.02 1.02 0 1 0-.002 2.04 1.02 1.02 0 0 0 .002-2.04zm-44.943 4.083a1.02 1.02 0 1 0-.002 2.04 1.02 1.02 0 0 0 .002-2.04zm49.026 0a1.02 1.02 0 1 0-.002 2.04 1.02 1.02 0 0 0 .002-2.04zm4.083 0a1.02 1.02 0 1 0-.002 2.04 1.02 1.02 0 0 0 .002-2.04zm4.083 0a1.02 1.02 0 1 0-.002 2.04 1.02 1.02 0 0 0 .002-2.04zm4.083 0a1.02 1.02 0 1 0-.001 2.04 1.02 1.02 0 0 0 .001-2.04zm-85.803.03a1.02 1.02 0 1 0-.002 2.04 1.02 1.02 0 0 0 .002-2.04zm4.083 0a1.02 1.02 0 1 0-.002 2.04 1.02 1.02 0 0 0 .002-2.04zm4.083 0a1.02 1.02 0 1 0-.002 2.04 1.02 1.02 0 0 0 .002-2.04zm4.083 0a1.02 1.02 0 1 0-.002 2.04 1.02 1.02 0 0 0 .002-2.04zm4.083 0a1.02 1.02 0 1 0-.002 2.04 1.02 1.02 0 0 0 .002-2.04zm4.083 0a1.02 1.02 0 1 0-.002 2.04 1.02 1.02 0 0 0 .002-2.04zm8.196 0a1.02 1.02 0 1 0-.002 2.04 1.02 1.02 0 0 0 .002-2.04zm4.053 0a1.02 1.02 0 1 0-.002 2.04 1.02 1.02 0 0 0 .002-2.04zm4.113 0a1.02 1.02 0 1 0-.002 2.04 1.02 1.02 0 0 0 .002-2.04zm4.083 0a1.02 1.02 0 1 0-.002 2.04 1.02 1.02 0 0 0 .002-2.04zm4.083 0a1.02 1.02 0 1 0-.002 2.04 1.02 1.02 0 0 0 .002-2.04zm4.113 0a1.02 1.02 0 1 0-.002 2.04 1.02 1.02 0 0 0 .002-2.04zm4.083 0a1.02 1.02 0 1 0-.002 2.04 1.02 1.02 0 0 0 .002-2.04zm4.083 0a1.02 1.02 0 1 0-.002 2.04 1.02 1.02 0 0 0 .002-2.04zm4.053 0a1.02 1.02 0 1 0 0 2.042c.564 0 1.05-.456 1.05-1.02 0-.565-.486-1.022-1.05-1.022zm4.113 0a1.02 1.02 0 1 0-.002 2.04 1.02 1.02 0 0 0 .002-2.04zm4.083 0a1.02 1.02 0 1 0-.002 2.04 1.02 1.02 0 0 0 .002-2.04zm-44.943 4.053a1.02 1.02 0 1 0-.002 2.04 1.02 1.02 0 0 0 .002-2.04zm49.026 0a1.02 1.02 0 1 0-.002 2.04 1.02 1.02 0 0 0 .002-2.04zm4.083 0a1.02 1.02 0 1 0-.002 2.04 1.02 1.02 0 0 0 .002-2.04zm4.083 0a1.02 1.02 0 1 0-.002 2.04 1.02 1.02 0 0 0 .002-2.04zm-81.72.03a1.02 1.02 0 1 0-.002 2.04 1.02 1.02 0 0 0 .002-2.04zm4.083 0a1.02 1.02 0 1 0-.002 2.04 1.02 1.02 0 0 0 .002-2.04zm4.083 0a1.02 1.02 0 1 0-.002 2.04 1.02 1.02 0 0 0 .002-2.04zm4.083 0a1.02 1.02 0 1 0-.002 2.04 1.02 1.02 0 0 0 .002-2.04zm4.083 0a1.02 1.02 0 1 0-.002 2.04 1.02 1.02 0 0 0 .002-2.04zm4.083 0a1.02 1.02 0 1 0-.002 2.04 1.02 1.02 0 0 0 .002-2.04zm8.196 0a1.02 1.02 0 1 0-.002 2.04 1.02 1.02 0 0 0 .002-2.04zm4.053 0a1.02 1.02 0 1 0-.002 2.04 1.02 1.02 0 0 0 .002-2.04zm4.113 0a1.02 1.02 0 1 0-.002 2.04 1.02 1.02 0 0 0 .002-2.04zm4.083 0a1.02 1.02 0 1 0-.002 2.04 1.02 1.02 0 0 0 .002-2.04zm4.083 0a1.02 1.02 0 1 0-.002 2.04 1.02 1.02 0 0 0 .002-2.04zm4.113 0a1.02 1.02 0 1 0-.002 2.04 1.02 1.02 0 0 0 .002-2.04zm4.083 0a1.02 1.02 0 1 0-.002 2.04 1.02 1.02 0 0 0 .002-2.04zm8.136 0a1.02 1.02 0 1 0 0 2.042c.564 0 1.05-.456 1.05-1.02 0-.565-.486-1.022-1.05-1.022zm4.113 0a1.02 1.02 0 1 0-.002 2.04 1.02 1.02 0 0 0 .002-2.04zm4.083 0a1.02 1.02 0 1 0-.002 2.04 1.02 1.02 0 0 0 .002-2.04zm-44.943 4.083a1.02 1.02 0 1 0-.002 2.04 1.02 1.02 0 0 0 .002-2.04zm49.026 0a1.02 1.02 0 1 0-.002 2.04 1.02 1.02 0 0 0 .002-2.04zm-73.554.03a1.02 1.02 0 1 0-.002 2.04 1.02 1.02 0 0 0 .002-2.04zm4.083 0a1.02 1.02 0 1 0-.002 2.04 1.02 1.02 0 0 0 .002-2.04zm4.083 0a1.02 1.02 0 1 0-.002 2.04 1.02 1.02 0 0 0 .002-2.04zm4.083 0a1.02 1.02 0 1 0-.002 2.04 1.02 1.02 0 0 0 .002-2.04zm4.083 0a1.02 1.02 0 1 0-.002 2.04 1.02 1.02 0 0 0 .002-2.04zm4.083 0a1.02 1.02 0 1 0-.002 2.04 1.02 1.02 0 0 0 .002-2.04zm8.196 0a1.02 1.02 0 1 0-.002 2.04 1.02 1.02 0 0 0 .002-2.04zm4.053 0a1.02 1.02 0 1 0-.002 2.04 1.02 1.02 0 0 0 .002-2.04zm4.113 0a1.02 1.02 0 1 0-.002 2.04 1.02 1.02 0 0 0 .002-2.04zm4.083 0a1.02 1.02 0 1 0-.002 2.04 1.02 1.02 0 0 0 .002-2.04zm4.083 0a1.02 1.02 0 1 0-.002 2.04 1.02 1.02 0 0 0 .002-2.04zm4.113 0a1.02 1.02 0 1 0-.002 2.04 1.02 1.02 0 0 0 .002-2.04zm8.166 0a1.02 1.02 0 1 0-.002 2.04 1.02 1.02 0 0 0 .002-2.04zm4.053 0a1.02 1.02 0 1 0 0 2.042c.564 0 1.05-.456 1.05-1.02 0-.565-.486-1.022-1.05-1.022zm4.113 0a1.02 1.02 0 1 0-.002 2.04 1.02 1.02 0 0 0 .002-2.04zm4.083 0a1.02 1.02 0 1 0-.002 2.04 1.02 1.02 0 0 0 .002-2.04z"></path></g></svg>