<svg xmlns="http://www.w3.org/2000/svg" viewBox="0 0 500 500"><g id="freepik--Shadow--inject-153"><ellipse cx="249.79" cy="447.79" rx="198.33" ry="22.14" style="fill:#ebebeb"></ellipse></g><g id="freepik--Plant--inject-153"><path d="M421.2,256.85S402,254.16,406.49,231C406.49,231,427.93,235.81,421.2,256.85Z" style="fill:#407BFF"></path><path d="M421.2,256.85S402,254.16,406.49,231C406.49,231,427.93,235.81,421.2,256.85Z" style="opacity:0.1"></path><path d="M420.23,252c-.38-1.17-.82-2.32-1.31-3.45,0-.15,0-.3-.05-.44,0-.32-.05-.64-.08-1-.05-.7-.1-1.39-.14-2.08-.08-1.38-.17-2.77-.19-4.15a.06.06,0,1,0-.11,0c0,1.39,0,2.77,0,4.16,0,.69.06,1.38.11,2.07l0,.46a40.87,40.87,0,0,0-3.85-6.58c-.66-.92-1.35-1.8-2.09-2.66s-1.58-1.71-2.35-2.57c-.05-.06-.13,0-.08.08a34.21,34.21,0,0,1,3.7,4.92c.58.88,1.13,1.79,1.65,2.71l-.17-.07-.69-.28-1.56-.59c-1-.38-2.07-.76-3.09-1.15-.06,0-.11.08,0,.11,1,.41,2,.84,3,1.27l1.49.64.75.31a2.38,2.38,0,0,0,.51.18c.39.69.77,1.39,1.12,2.1a50.68,50.68,0,0,1,2.35,5.53c0,.13.09.27.14.4a11.43,11.43,0,0,0-1.58-.76l-2-.9c-1.35-.62-2.69-1.25-4-2-.06,0-.12.07-.05.1,1.32.72,2.61,1.49,3.93,2.21.66.36,1.32.7,2,1a6,6,0,0,0,1.8.72,22.71,22.71,0,0,1,1.26,5.45c.21,2.62.19,5.26.25,7.88a0,0,0,1,0,.07,0c.19-2.38.3-4.78.31-7.17A20.87,20.87,0,0,0,420.23,252Z" style="fill:#263238"></path><path d="M417.27,238.39a23.24,23.24,0,0,0-.19,4.08,0,0,0,0,0,.06,0c.08-1.35.09-2.7.25-4.05C417.4,238.34,417.28,238.31,417.27,238.39Z" style="fill:#263238"></path><path d="M411.79,239.55a14.87,14.87,0,0,1-2.47-1.21c-.06,0-.12.06-.06.1a9.83,9.83,0,0,0,2.49,1.19C411.8,239.64,411.83,239.57,411.79,239.55Z" style="fill:#263238"></path><path d="M421.81,293.63c0-2.12-.06-4.24-.08-6.36,0-7-.1-14.09-.22-21.13q-.15-8.38-.4-16.77a.08.08,0,0,0,0-.07l0-4.58s0-.06-.09-.06-.09,0-.09.06l0,4.59a.07.07,0,0,0,0,.06c-.29,9.95-.54,19.9-.6,29.86,0,2,0,4,0,6.07q-.09,9.74-.07,19.46c0,1,0,2.07,0,3.1,0,5.94.06,11.88.06,17.81,0,.32.36.48.73.5s.89-.16.89-.52c0-6.55.05-13.1.05-19.64C421.83,301.88,421.84,297.75,421.81,293.63Z" style="fill:#263238"></path><path d="M413.8,287.18s-9.23-6.83-18-2.21-10.14,22.43-10.14,22.43,12.87,1.84,21-5.87C414.44,294.1,413.8,287.18,413.8,287.18Z" style="fill:#407BFF"></path><path d="M413.8,287.18s-9.23-6.83-18-2.21-10.14,22.43-10.14,22.43,12.87,1.84,21-5.87C414.44,294.1,413.8,287.18,413.8,287.18Z" style="opacity:0.1"></path><path d="M416.31,287.61a10.9,10.9,0,0,0-5.34-.7,8.63,8.63,0,0,0-1.14-.11l-1.3-.1-2.69-.19c-1.82-.14-3.65-.25-5.46-.43-.07,0-.08.11,0,.12,1.8.23,3.59.48,5.4.66.93.1,1.85.19,2.78.26l.68.07c-.28.06-.55.12-.82.2a22,22,0,0,0-4.18,1.7c-.73.13-1.45.33-2.17.5-1.14.27-2.28.56-3.41.86-2.24.59-4.46,1.25-6.68,1.9a.06.06,0,1,0,0,.11c2.22-.55,4.46-1,6.68-1.58l3.25-.77.85-.2a27,27,0,0,0-6.56,5.7,35.6,35.6,0,0,0-4.56,7.2c0,.06.06.13.1.06a34.48,34.48,0,0,1,5.51-7.24l-.12.36-.51,1.64c-.34,1.08-.69,2.17-1,3.26a.06.06,0,0,0,.11,0c.39-1.05.76-2.11,1.13-3.17l.55-1.56.28-.81a1.84,1.84,0,0,1,.09-.25,32.11,32.11,0,0,1,3.27-2.79,24.79,24.79,0,0,1,4.9-2.81l-.09.47c-.1.42-.19.84-.28,1.27-.18.87-.35,1.75-.52,2.62-.34,1.79-.56,3.6-.89,5.38a.06.06,0,1,0,.11,0c.41-1.79,1-3.56,1.35-5.36.2-.9.4-1.8.59-2.71.08-.42.17-.84.25-1.26a5.89,5.89,0,0,0,.13-.71l.5-.21a14.69,14.69,0,0,1,7.68-1.05,7.57,7.57,0,0,1,5.56,4.45c.08.2.4.08.35-.13A7.12,7.12,0,0,0,416.31,287.61Z" style="fill:#263238"></path><path d="M402.18,295.21l-.78,3.51a26.58,26.58,0,0,0-.64,3.41c0,.05.06.05.07,0a27,27,0,0,0,.79-3.43c.22-1.16.45-2.31.68-3.47C402.31,295.17,402.2,295.14,402.18,295.21Z" style="fill:#263238"></path><path d="M393.25,298.19c-1.17.59-2.31,1.27-3.54,1.76a.06.06,0,1,0,.05.1,37.75,37.75,0,0,0,3.52-1.82A0,0,0,1,0,393.25,298.19Z" style="fill:#263238"></path><path d="M415.87,274.63s-11.28.72-16.53-6.72-4.07-18.07-4.07-18.07,11.85,1.44,16.56,6.79S415.87,274.63,415.87,274.63Z" style="fill:#407BFF"></path><path d="M421.17,285.76c-.39-1.21-.88-2.4-1.33-3.59s-.91-2.26-1.41-3.38a69,69,0,0,0-3.38-6.64c-.8-1.38-1.65-2.71-2.53-4,0-.2,0-.4-.08-.6s-.11-.7-.16-1c-.11-.71-.24-1.42-.36-2.14-.26-1.55-.58-3.1-.83-4.66,0-.07-.13-.07-.11,0,.22,1.54.38,3.09.59,4.63.11.76.21,1.52.32,2.27.05.27.09.55.13.82a81.06,81.06,0,0,0-5.58-7.24l-.82-.92c0-.09-.07-.17-.11-.26l-.24-.64c-.17-.45-.33-.9-.49-1.35-.32-.88-.6-1.77-.84-2.68a.06.06,0,1,0-.11,0c.22.93.47,1.85.74,2.77.13.44.27.87.43,1.31,0,.07.05.14.08.22-1.44-1.58-2.95-3.09-4.47-4.59-.05-.05-.13,0-.08.09a80,80,0,0,1,8,9.79,6.45,6.45,0,0,0-.84-.21c-.87-.17-1.74-.3-2.62-.41-1.84-.23-3.67-.46-5.5-.75-.08,0-.11.1,0,.11,1.75.35,3.48.74,5.21,1.14.82.19,1.65.35,2.47.51a18.05,18.05,0,0,1,2,.56c.18.27.37.52.55.79.83,1.2,1.62,2.43,2.4,3.67l-1.15-.23c-.87-.17-1.74-.32-2.62-.47-1.72-.28-3.44-.58-5.14-1a.06.06,0,0,0,0,.12c1.72.4,3.43.88,5.15,1.33.82.22,1.65.42,2.49.61l1.25.27c.18,0,.35.08.51.09q2.47,4,4.63,8.19c.63,1.23,1.23,2.47,1.82,3.72s1.12,2.59,1.67,3.89C420.85,286.15,421.26,286,421.17,285.76Z" style="fill:#263238"></path><path d="M409.62,259.83c-.22-1.08-.44-2.15-.68-3.22a.06.06,0,1,0-.11,0c.21,1.06.41,2.12.61,3.18a31,31,0,0,0,.64,3.16,0,0,0,0,0,0,0A22.19,22.19,0,0,0,409.62,259.83Z" style="fill:#263238"></path><path d="M403,259.52a16.41,16.41,0,0,0-1.62-.69l-.86-.33-.43-.18a1.89,1.89,0,0,1-.48-.21c-.08-.06-.14.09,0,.1a2.45,2.45,0,0,1,.48.2l.42.19.83.37a16.86,16.86,0,0,0,1.66.66C403.06,259.65,403.1,259.55,403,259.52Z" style="fill:#263238"></path><path d="M427.42,265.75S434.25,253,444.63,251s16.75,8.71,16.75,8.71-7.58,9.67-17.11,11.36S427.42,265.75,427.42,265.75Z" style="fill:#407BFF"></path><path d="M451.59,256.74a28.12,28.12,0,0,0-8.14.1l.46-.25,2.31-1.19c1.59-.83,3.2-1.71,4.87-2.38a.05.05,0,1,0,0-.1c-1.63.75-3.31,1.39-4.94,2.14-.82.37-1.62.76-2.41,1.18-.52.27-1.08.53-1.59.86a28.27,28.27,0,0,0-6.6,2.19c.43-.47.87-.94,1.3-1.42,1-1.06,1.92-2.17,3-3.13.06-.05,0-.14-.08-.08-1.09,1-2.24,1.9-3.29,2.92-.51.5-1,1-1.48,1.55-.24.26-.47.54-.7.82a27.71,27.71,0,0,0-10.89,10.64,28.11,28.11,0,0,0-3,8.16c0,.08.09.12.12,0a31.29,31.29,0,0,1,7.63-12.92A29.91,29.91,0,0,1,451.58,257C451.71,257,451.72,256.76,451.59,256.74Z" style="fill:#263238"></path><path d="M461.38,259.74s-7.58,9.68-17.11,11.36c-7.27,1.29-13.25-2.5-15.68-4.37l-.53-.86s4.92-4.14,14.22-6.53S461.38,259.74,461.38,259.74Z" style="opacity:0.1"></path><path d="M445.56,252.2a23.44,23.44,0,0,0-2.3,1.52,14,14,0,0,0-2,1.83.06.06,0,0,0,.09.09c.69-.6,1.38-1.2,2.1-1.77a22.38,22.38,0,0,1,2.18-1.58C445.69,252.26,445.63,252.16,445.56,252.2Z" style="fill:#263238"></path><path d="M451.26,254.35l-1.16.46-1.16.48c-.08,0,0,.17,0,.14l1.16-.47c.39-.16.77-.34,1.16-.49C451.37,254.44,451.33,254.32,451.26,254.35Z" style="fill:#263238"></path><path d="M426.06,281.8s1.82,12.66,11.33,17.08,21.11,0,21.11,0S453.94,271.51,426.06,281.8Z" style="fill:#407BFF"></path><path d="M426.06,281.8s1.82,12.66,11.33,17.08,21.11,0,21.11,0S453.94,271.51,426.06,281.8Z" style="opacity:0.1"></path><path d="M452,290.65c-.88-.1-1.75-.25-2.62-.41l-1.28-.24-.66-.13c-.26-.24-.51-.48-.78-.71a38.1,38.1,0,0,0-5.81-4.22,31,31,0,0,0-3.49-1.79h.18l3.13.14c2.09.1,4.18.14,6.26.28.08,0,.07-.11,0-.12-2.09-.14-4.18-.37-6.27-.55l-3-.27-1.57-.14-.4,0c-.54-.2-1.09-.4-1.64-.57a14.94,14.94,0,0,0-8.06-.44c-2.39.61-4.78,2.18-5.4,4.7,0,.09.11.15.15.06.89-2.11,3.23-3.17,5.34-3.61a13,13,0,0,1,4.31-.08,10.9,10.9,0,0,0,.48,1.91c.27.89.53,1.78.8,2.67.53,1.78,1.13,3.54,1.66,5.32a.06.06,0,0,0,.11,0c-.44-1.78-.82-3.57-1.25-5.35-.21-.87-.43-1.75-.64-2.62a16,16,0,0,0-.48-1.8,22.76,22.76,0,0,1,2.47.59,36,36,0,0,1,4.31,1.58c.14.9.34,1.79.55,2.68.26,1.12.55,2.22.9,3.32,0,.06.12,0,.11,0s0-.13-.05-.2h0c-.21-1-.44-2.06-.66-3.1-.17-.83-.33-1.67-.52-2.5a36.41,36.41,0,0,1,3.47,1.76c0,.26.09.52.12.75.07.44.15.87.23,1.3.18,1,.38,1.95.61,2.92a46.22,46.22,0,0,0,1.63,5.5.06.06,0,0,0,0,.07l0,.06s.11,0,.1-.05c-.44-1.88-.95-3.74-1.36-5.62-.2-.94-.41-1.88-.6-2.82l-.27-1.42c0-.13,0-.28-.07-.42a39.17,39.17,0,0,1,3.71,2.47,39.75,39.75,0,0,1,5.67,5.18c.07.07.2,0,.14-.12-.73-.95-1.45-1.88-2.27-2.76-.48-.52-1-1-1.48-1.5l.16,0c.44.08.89.14,1.34.2.88.12,1.76.21,2.64.31C452,290.77,452,290.66,452,290.65Z" style="fill:#263238"></path><path d="M445.26,294.94h0c0-.11,0-.22-.05-.33a3.11,3.11,0,0,1-.11-.41h0q-.29-1.26-.51-2.55c0-.06-.11,0-.1,0a10.38,10.38,0,0,0,.72,3.3,0,0,0,0,0,.07,0Z" style="fill:#263238"></path><path d="M437.3,294.74s0-.05-.05-.06c-.27-1.12-.53-2.24-.76-3.36l-.36-1.78-.18-1a2.59,2.59,0,0,0-.2-.82.06.06,0,0,0-.11,0,5.55,5.55,0,0,0,.24,1.7c.12.61.24,1.23.37,1.84.28,1.25.59,2.5.95,3.72a.06.06,0,0,0,.12,0A2.45,2.45,0,0,0,437.3,294.74Z" style="fill:#263238"></path><path d="M451.08,287c-1.73-.24-3.47-.49-5.21-.7-.08,0-.11.1,0,.11,1.73.26,3.48.47,5.21.7C451.13,287.13,451.16,287,451.08,287Z" style="fill:#263238"></path><path d="M421.18,252.13s-5.82-25.53,21.62-35.87C442.8,216.26,450.4,249.88,421.18,252.13Z" style="fill:#407BFF"></path><path d="M427.11,237.65l.29-.18c.52-.28,1-.58,1.55-.87l3.18-1.78c2.1-1.17,4.17-2.39,6.27-3.53a.06.06,0,1,0-.06-.1c-2.11,1.15-4.26,2.22-6.38,3.35l-3.15,1.66-1.28.68c.91-1.74,1.89-3.44,3-5.08,1.44-2.19,3-4.27,4.64-6.31a.09.09,0,0,0-.13-.13,44,44,0,0,0-6.35,7.78,2.44,2.44,0,0,0,0-.27c0-.63,0-1.27.06-1.9,0-1.25,0-2.5,0-3.74a.06.06,0,0,0-.12,0c-.05,1.23-.2,2.45-.27,3.68,0,.61-.06,1.22-.08,1.83,0,.33,0,.71,0,1.07-.56.9-1.11,1.81-1.62,2.74a48.47,48.47,0,0,0-2.45,5.14c0-.63-.07-1.27-.1-1.9-.09-1.4-.26-2.8-.32-4.19,0-.08-.12-.08-.11,0,0,1.4,0,2.8,0,4.2,0,.69.05,1.39.09,2.09,0,.26,0,.52.05.78a46.2,46.2,0,0,0-2.07,7,74.28,74.28,0,0,0-1,7.71s0,0,0,0a41.68,41.68,0,0,1,1.45-6.88c.34-1.2.7-2.4,1.09-3.59,1.14-.54,2.23-1.21,3.33-1.82l3.45-1.88c2.29-1.26,4.57-2.54,6.93-3.65.07,0,0-.13-.06-.1-2.39,1.09-4.8,2.12-7.15,3.3-1.17.59-2.32,1.21-3.46,1.86-.95.53-1.93,1.07-2.84,1.69.26-.8.54-1.59.85-2.37A65.94,65.94,0,0,1,427.11,237.65Z" style="fill:#263238"></path><path d="M424.79,231.81c0-.07-.12-.07-.11,0,.09,1.46.14,2.92.3,4.37,0,.08.13.08.13,0C425.06,234.72,424.9,233.27,424.79,231.81Z" style="fill:#263238"></path><path d="M438,236.69c-1.72.69-3.45,1.35-5.16,2.06-.05,0,0,.1,0,.08,1.74-.65,3.45-1.36,5.17-2C438.05,236.77,438,236.66,438,236.69Z" style="fill:#263238"></path><path d="M440.56,224.91a44.85,44.85,0,0,0-4.88,2.62.07.07,0,1,0,.07.12c1.6-.93,3.22-1.82,4.87-2.64C440.69,225,440.62,224.88,440.56,224.91Z" style="fill:#263238"></path><rect x="400.57" y="307.36" width="39.57" height="41.71" style="fill:#455a64"></rect><rect x="397.85" y="322.12" width="2.02" height="71.45" style="fill:#263238"></rect><rect x="440.63" y="322.12" width="2.02" height="71.45" style="fill:#263238"></rect><rect x="420.31" y="322.12" width="2.02" height="71.45" style="fill:#263238"></rect><rect x="398.86" y="346.4" width="42.78" height="5.78" style="fill:#263238"></rect></g><g id="freepik--Floor--inject-153"><polygon points="39.97 393.56 92.48 393.32 144.99 393.23 250 393.07 355.01 393.23 407.52 393.32 460.03 393.56 407.52 393.81 355.01 393.9 250 394.06 144.99 393.9 92.48 393.81 39.97 393.56" style="fill:#263238"></polygon></g><g id="freepik--Device--inject-153"><path d="M412.44,62.42H249.27a16.66,16.66,0,0,0-16.51,16.82V415.13a16.67,16.67,0,0,0,16.51,16.81H412.44A16.68,16.68,0,0,0,429,415.13V79.24A16.67,16.67,0,0,0,412.44,62.42Zm6.2,342.32c0,8.84-6.63,16-14.79,16h-146c-8.19,0-14.81-7.16-14.81-16V92c0-18,6.62-18.89,14.81-18.89h29.24c1.7,0,3.09,1.93,3.09,4.32v1c0,5.6,3.07,5.62,6.83,5.62h67.62c3.81,0,6.86,0,6.86-5.62v-1c0-2.39,1.37-4.32,3.09-4.32h29.24c8.16,0,14.79,2.39,14.79,18.89Z" style="fill:#263238"></path><path d="M418.64,92.24V405c0,8.84-6.62,16-14.78,16h-146c-8.19,0-14.81-7.15-14.81-16V92.24c0-18,6.62-18.89,14.81-18.89h29.24c1.7,0,3.09,1.94,3.09,4.33v1c0,5.61,3.07,5.63,6.83,5.63h67.62c3.8,0,6.85,0,6.85-5.63v-1c0-2.39,1.38-4.33,3.1-4.33h29.24C412,73.35,418.64,75.75,418.64,92.24Z" style="fill:#fff"></path><path d="M418.64,92.25v28.37H243.08V92.25c0-18,6.62-18.89,14.81-18.89h29.24c1.7,0,3.09,1.93,3.09,4.32v1c0,5.6,3.07,5.62,6.83,5.62h67.62c3.8,0,6.85,0,6.85-5.62v-1c0-2.39,1.38-4.32,3.1-4.32h29.24C412,73.36,418.64,75.75,418.64,92.25Z" style="fill:#407BFF"></path><path d="M340.08,77.06H321.64a1.14,1.14,0,0,1-1.14-1.14h0a1.14,1.14,0,0,1,1.14-1.14h18.44a1.14,1.14,0,0,1,1.14,1.14h0A1.14,1.14,0,0,1,340.08,77.06Z" style="fill:#fff"></path><g id="freepik--u5Zjqx--inject-153"><path d="M282.07,80.1l-.28.29a1.21,1.21,0,0,0-.16.16,3.77,3.77,0,0,0-2.72-1.13,3.81,3.81,0,0,0-2.73,1.13l-.15-.16-.28-.28h0l0,0,.36-.32a4.59,4.59,0,0,1,1.92-.89l.55-.07h.48c.12,0,.25,0,.37,0a3.84,3.84,0,0,1,1,.24,3.26,3.26,0,0,1,.68.32,4.18,4.18,0,0,1,.65.45l.3.27Z" style="fill:#fff"></path><path d="M277.08,81.43l-.45-.44a3.11,3.11,0,0,1,1.82-.91,3.21,3.21,0,0,1,2.73.9l-.45.45a2.6,2.6,0,0,0-3.65,0Z" style="fill:#fff"></path><path d="M280.29,81.88l-.45.44a1.3,1.3,0,0,0-.93-.38,1.28,1.28,0,0,0-.94.39l-.44-.45A1.94,1.94,0,0,1,280.29,81.88Z" style="fill:#fff"></path><path d="M279.31,82.73a.41.41,0,1,1-.4-.4A.4.4,0,0,1,279.31,82.73Z" style="fill:#fff"></path></g><path d="M254.52,81a1.17,1.17,0,1,1,1.16,1.16A1.16,1.16,0,0,1,254.52,81Z" style="fill:#fff"></path><path d="M258.19,81a1.16,1.16,0,1,1,1.16,1.16A1.16,1.16,0,0,1,258.19,81Z" style="fill:#fff"></path><path d="M261.85,81A1.17,1.17,0,1,1,263,82.12,1.16,1.16,0,0,1,261.85,81Z" style="fill:#fff"></path><path d="M265.52,81a1.16,1.16,0,1,1,1.16,1.16A1.16,1.16,0,0,1,265.52,81Z" style="fill:#fff"></path><path d="M269.18,81a1.17,1.17,0,1,1,1.16,1.16A1.16,1.16,0,0,1,269.18,81Z" style="fill:#fff"></path><path d="M405.47,83.5H396V79.11h9.47Zm-9-.48H405V79.59h-8.51Z" style="fill:#fff"></path><rect x="396.78" y="79.86" width="6.11" height="2.9" style="fill:#fff"></rect><rect x="405.47" y="80.13" width="0.84" height="2.35" style="fill:#fff"></rect><polygon points="259.71 109.77 254.52 104.91 259.71 100.05 260.51 100.9 256.24 104.91 260.51 108.91 259.71 109.77" style="fill:#fff"></polygon><path d="M402.72,110.12h-3.5V108.9a.28.28,0,0,0-.15-.24,3.64,3.64,0,0,1-.39-.23.28.28,0,0,0-.29,0l-1.06.61-1.75-3,1.06-.61a.26.26,0,0,0,.13-.26c0-.07,0-.15,0-.22s0-.15,0-.23a.28.28,0,0,0-.13-.26h0l-1.06-.61,1.75-3,1.05.61a.3.3,0,0,0,.29,0l.4-.22a.29.29,0,0,0,.15-.25V99.7h3.5v1.21a.28.28,0,0,0,.16.25l.39.22a.28.28,0,0,0,.29,0l1.05-.61,1.75,3-1.06.6a.27.27,0,0,0-.13.27v.44a.26.26,0,0,0,.13.26l1.06.61-1.75,3-1.05-.61a.29.29,0,0,0-.3,0,3.64,3.64,0,0,1-.39.23.28.28,0,0,0-.15.24Zm-2.75-.75h2v-.47a1,1,0,0,1,.56-.91,3.37,3.37,0,0,0,.32-.19,1,1,0,0,1,1.08,0l.4.23,1-1.73-.41-.23a1,1,0,0,1-.5-1v-.37a1,1,0,0,1,.51-1l.4-.23-1-1.73-.41.23a1,1,0,0,1-1.07,0,2.68,2.68,0,0,0-.33-.18,1,1,0,0,1-.56-.92v-.46h-2v.46a1,1,0,0,1-.56.92,2.11,2.11,0,0,0-.33.18,1,1,0,0,1-1.07,0l-.4-.24-1,1.73.4.23a1,1,0,0,1,.51,1c0,.07,0,.13,0,.19s0,.12,0,.18a1,1,0,0,1-.51,1l-.4.23,1,1.73.4-.23a1,1,0,0,1,1.08,0,3.37,3.37,0,0,0,.32.19,1,1,0,0,1,.56.91Zm1-1.84a2.63,2.63,0,1,1,2.62-2.62A2.62,2.62,0,0,1,401,107.53Zm0-4.5a1.88,1.88,0,1,0,1.87,1.88A1.88,1.88,0,0,0,401,103Z" style="fill:#fff"></path></g><g id="freepik--Fingerprint--inject-153"><g id="freepik--Fs2z5I.tif--inject-153"><path d="M330.64,364.52a11.66,11.66,0,0,0-9.21,4.43,26.83,26.83,0,0,0-2.43,3.52,14.72,14.72,0,0,1-4.79,5,1.43,1.43,0,0,1-1.26.23,1.19,1.19,0,0,1-.86-1,1.22,1.22,0,0,1,.63-1.27,10.29,10.29,0,0,0,3-2.64c.61-.81,1.15-1.68,1.7-2.54a20.73,20.73,0,0,1,3.9-4.75,13.29,13.29,0,0,1,6.88-3.26,15.21,15.21,0,0,1,9.78,1.56,14.69,14.69,0,0,1,7.34,9.36,8.58,8.58,0,0,1,.18,2.73c-.11,2.11-.52,4.17-.82,6.26-.1.7-.19,1.41-.24,2.12A5.45,5.45,0,0,0,345.7,388c.53.69,1.15,1.3,1.74,1.94a1.27,1.27,0,0,1-.65,2.2,1.08,1.08,0,0,1-1-.24,11.88,11.88,0,0,1-3.69-5.3,7.4,7.4,0,0,1-.21-3.17c.28-2.08.62-4.15.87-6.23a18.72,18.72,0,0,0,.09-2.8,6.87,6.87,0,0,0-.91-2.84,12.42,12.42,0,0,0-5.21-5.5,11.69,11.69,0,0,0-4.39-1.35C331.81,364.61,331.22,364.57,330.64,364.52Z" style="fill:#407BFF"></path><path d="M331,371.25a5.77,5.77,0,0,1,5.13,3.72,7.07,7.07,0,0,1,.69,3.16,9,9,0,0,1-.88,3.45,22.64,22.64,0,0,1-3.35,5.09,55.37,55.37,0,0,1-7,6.92c-1.74,1.45-3.56,2.83-5.35,4.24a1.32,1.32,0,0,1-1.22.28,1.22,1.22,0,0,1-.91-1.05,1.2,1.2,0,0,1,.51-1.19c.93-.71,1.87-1.39,2.78-2.12a66.46,66.46,0,0,0,8.55-7.88,22.52,22.52,0,0,0,3.47-4.86,6.35,6.35,0,0,0,.87-3.17,4.7,4.7,0,0,0-1.3-3.11,3.39,3.39,0,0,0-4.73,0,6.13,6.13,0,0,0-1.42,2.06,25.64,25.64,0,0,1-2.68,4.58,23.71,23.71,0,0,1-4.95,4.8c-1.67,1.25-3.36,2.46-5.06,3.68a1.26,1.26,0,0,1-2.06-.85,1.23,1.23,0,0,1,.58-1.21l3-2.12a44.09,44.09,0,0,0,4.61-3.69,19.93,19.93,0,0,0,4.26-6.21,8.28,8.28,0,0,1,2.13-3A6.44,6.44,0,0,1,331,371.25Z" style="fill:#407BFF"></path><path d="M341,376.79a23.44,23.44,0,0,1-.5,4.09c-.22,1.28-.53,2.55-.65,3.84a9.3,9.3,0,0,0,1.69,6.54,5.17,5.17,0,0,0,2.62,1.77l.4.16a1.25,1.25,0,0,1,.64,1.59,1.23,1.23,0,0,1-1.52.76,8,8,0,0,1-5.35-4.75,12.44,12.44,0,0,1-1-5.92,34.4,34.4,0,0,1,.53-3.48,28.11,28.11,0,0,0,.64-4.48,6.89,6.89,0,0,0-1.37-4.53,8.25,8.25,0,0,0-4.89-3.13,7.52,7.52,0,0,0-6.25,1.47,11.22,11.22,0,0,0-3.59,4.64,15.45,15.45,0,0,1-3.77,5.14,30,30,0,0,1-4.53,3.49,1.26,1.26,0,1,1-1.42-2.09,30.59,30.59,0,0,0,4-3,13.72,13.72,0,0,0,2.86-3.4c.42-.76.75-1.58,1.17-2.35a13.27,13.27,0,0,1,4.52-4.95,9.75,9.75,0,0,1,4.4-1.56,10.41,10.41,0,0,1,9.25,3.83,8.93,8.93,0,0,1,2.11,4.77C341,375.74,341,376.27,341,376.79Z" style="fill:#407BFF"></path><path d="M330.8,357.42a19.41,19.41,0,0,1,11.83,4.05,22.84,22.84,0,0,1,5,5,1.27,1.27,0,1,1-2.06,1.48A20.82,20.82,0,0,0,340,362.7a16.83,16.83,0,0,0-6.83-2.59,18.36,18.36,0,0,0-3.78-.08,16.66,16.66,0,0,0-4.78,1,15,15,0,0,0-6.31,4.6,34.67,34.67,0,0,0-3.26,4.53,1.29,1.29,0,0,1-1.36.62,1.23,1.23,0,0,1-1-1.09,1.5,1.5,0,0,1,.19-.83,31.12,31.12,0,0,1,5.34-6.81,17,17,0,0,1,8.21-4.19A23.64,23.64,0,0,1,330.8,357.42Z" style="fill:#407BFF"></path><path d="M330.54,355.46a19.15,19.15,0,0,0-10.12,2.69,14.44,14.44,0,0,0-3.84,3.26,1.27,1.27,0,0,1-2-1.54,14.72,14.72,0,0,1,3.05-2.9,20.49,20.49,0,0,1,8.62-3.67,22.86,22.86,0,0,1,4.28-.38,23.39,23.39,0,0,1,14.5,4.76c.22.17.45.34.66.52a1.25,1.25,0,0,1,.23,1.8,1.32,1.32,0,0,1-1.82.19c-1-.7-2-1.44-3-2.05a18.37,18.37,0,0,0-6.89-2.38c-1.21-.17-2.43-.25-3.64-.37Z" style="fill:#407BFF"></path><path d="M314.32,393.72a1.38,1.38,0,0,1,.64-1.11c1.13-.83,2.26-1.65,3.35-2.52a48.06,48.06,0,0,0,8.74-8.77,19.94,19.94,0,0,0,2.46-4.08,1.27,1.27,0,0,1,2.34,1,17.7,17.7,0,0,1-1.93,3.45,42.3,42.3,0,0,1-6.13,7,70.36,70.36,0,0,1-7.35,6,1.29,1.29,0,0,1-2.05-.57A2.79,2.79,0,0,1,314.32,393.72Z" style="fill:#407BFF"></path><path d="M347.07,378.67a20.08,20.08,0,0,0-.77-5.75c-.1-.3-.21-.58-.33-.87a1.28,1.28,0,0,1,.63-1.7,1.27,1.27,0,0,1,1.69.67,12.75,12.75,0,0,1,.91,3,22.17,22.17,0,0,1,.4,4.6,33.74,33.74,0,0,1-.9,7.35,1.27,1.27,0,0,1-1.58,1,1.29,1.29,0,0,1-.9-1.56,31,31,0,0,0,.78-5.59C347,379.36,347.05,378.92,347.07,378.67Z" style="fill:#407BFF"></path><path d="M328.75,393.77a4.61,4.61,0,0,1,3.74,1.93,9.15,9.15,0,0,1,1.4,3.06,1.26,1.26,0,0,1-2.38.81c-.13-.3-.19-.63-.33-.92a11.46,11.46,0,0,0-.9-1.61,1.53,1.53,0,0,0-2.2-.4,11.12,11.12,0,0,0-2.53,2.26,1.32,1.32,0,0,1-1.76.34,1.21,1.21,0,0,1-.36-1.74,10.64,10.64,0,0,1,4.18-3.43A8.55,8.55,0,0,1,328.75,393.77Z" style="fill:#407BFF"></path><path d="M332.75,390.6a6.92,6.92,0,0,1,.82-3.23,1.23,1.23,0,0,1,1.32-.65,1.11,1.11,0,0,1,1,.87,1.35,1.35,0,0,1-.06.89,5.07,5.07,0,0,0,.34,5.1,10.1,10.1,0,0,0,2.7,2.83,1.27,1.27,0,0,1-.52,2.29,1.13,1.13,0,0,1-.91-.2,11.64,11.64,0,0,1-4.13-4.95A7.67,7.67,0,0,1,332.75,390.6Z" style="fill:#407BFF"></path></g></g><g id="freepik--Code--inject-153"><g id="freepik--EYli9y.tif--inject-153"><path d="M274,286.54l.56,0h26.91V314c-.22,0-.44,0-.67,0H274.65a3.73,3.73,0,0,1-.67-.09Zm4,23.5h19.53v-19.5H278Z" style="fill:#263238"></path><path d="M274,200.35h27.08l.39,0v27.35c-.21,0-.4,0-.58,0H274.48l-.5,0Zm23.54,3.93H278v19.54h19.53Z" style="fill:#263238"></path><path d="M274,263.05V243.44h7.93v3.91H278v7.85h7.8v-4h3.89v11.83h-3.9v-3.85H278v3.86l0,0Z" style="fill:#263238"></path><path d="M274,231.76a4.22,4.22,0,0,1,.61-.07H293l.6,0v3.95l0,0h-3.92v3.91h-3.89v-3.9h-3.88v3.9H274Z" style="fill:#263238"></path><path d="M278,266.92a7.38,7.38,0,0,0-.07.81q0,7,0,14.09v.83h-4V266.94Z" style="fill:#263238"></path><path d="M372,274.85c0,.27,0,.54,0,.82v14.81H376v3.93h7.84v3.91h3.87v3.9h-3.85V310H380c0-1.25,0-2.51,0-3.82h-1.08l-2.8-.07c0-.85-.09-1.69-.1-2.53,0-.43.07-.85.1-1.28h3.78v-3.91H376c0,1.05,0,2.07,0,3.08a6.07,6.07,0,0,0,.12.84H372v-3.91h-3.79v3.89H372v3.81h4.12v4c.71,0,1.43,0,2.16,0,.58,0,1.15-.07,1.73-.11,0,1-.06,2-.08,3,0,.32,0,.63,0,1H376v-3.85H364.29v-3.9h-7.85V310h-4.05v-3.8h-7.74v-7.83h0c1.53,0,3.05,0,4.57,0,1.07,0,2.13,0,3.19,0v3.82h11.83v-3.85l-.41,0H352.87a4.1,4.1,0,0,0-.49.06v-4h-3.83v-3.93h-6.07c-.58,0-1.16,0-1.74-.06h0c0-1.3,0-2.6,0-3.91h7.83v-3.91h3.92v-3.89h11.78v-3.88l0,0h7.81Zm-3.92,19.54v-11.7H356.45v11.7Z" style="fill:#263238"></path><path d="M301.57,278.81c0-.9-.06-1.79-.08-2.69,0-.39,0-.79,0-1.3H298.9c-1.34,0-1.34,0-1.34-1.35,0-.77,0-1.55,0-2.32a1,1,0,0,1,.08-.26h3.88v-4l0,0h7.09c.25,0,.5,0,.74-.06v4h-3.89v3.88h11.68v-3.91h-3.91v-4h-3.89V251.24H305.4v-3.88h3.87V235.64H297.61l0,0v-3.93h19.5v3.89h-3.86v7.76h3.89v-3.8H325v3.83h-3.87v7.81h0c-.68,0-1.36.07-2,.06s-1.22-.06-1.83-.09a5.33,5.33,0,0,1-.1-.79c0-1,0-2,0-3h-3.91v3.88c.72,0,1.4,0,2.09,0s1.28-.07,1.93-.1a6.13,6.13,0,0,0-.11.86c0,1,0,2.08,0,3.19h-3.91v7.83h3.93v7.86H325v3.94h-3.85v7.8l0,0-7.69,0a1.7,1.7,0,0,1-.31-.06l0,0v-3.83c-.13,0-.27,0-.41,0H302a3.41,3.41,0,0,0-.43.06Z" style="fill:#263238"></path><path d="M356.46,247.33a5.29,5.29,0,0,0,0,.56v10.62c0,.18,0,.37,0,.62h3.86V263h-7.8v3.91h19.55v3.9h0c-.23,0-.45.06-.68.06h-6.44c-.22,0-.44,0-.69,0v3.94l0,0h-7.86v-4H344.63v-4h3.87v-3.88h-3.87v-3.86h-15.7v3.86H325v3.86h-3.85v-7.8H325V255.2h-3.83v-4h0c.25,0,.5.06.75.06h14.9v3.93h11a6.17,6.17,0,0,1,.74.07v3.79h3.91v-3.78h-3.92v-4h3.95v-4h4Z" style="fill:#263238"></path><path d="M360.37,227.72V200.37h27.37v27.35Zm3.91-3.92h19.54V204.28H364.28Z" style="fill:#263238"></path><path d="M380,255.25v3.88h7.77v11.71H380V267H376v-7.8h-4V263H368.2v-3.86h-3.93v-3.93h-3.9V251.3h3.86v-4h3.93v4h3.94v3.92h.81l7.09.05Z" style="fill:#263238"></path><path d="M336.93,302.31a3.54,3.54,0,0,1-.13-.71c0-1.06,0-2.13,0-3.24H329V294.5h3.84v-4H329v4H325v3.78h-3.9v-7.78H325v-3.95h-3.83v-3.94l0,0,11.71,0v3.89h4v3.91h3.88v4h3.89v3.93h-3.91v4h-3.79Z" style="fill:#263238"></path><path d="M321.14,216.05h-3.91l0,0v-3.93H313.2V216h-7.76v-3.95h3.83v-3.92h-3.83v-3.91h3.85v-3.87h3.91v7.72h4v-3.83H325v3.87h-3.85v7.91Z" style="fill:#263238"></path><path d="M325,223.85V220h-3.9v-3.91h0a2.91,2.91,0,0,1,.31,0h14.91a5.39,5.39,0,0,1,.56.08h0v3.85h3.79v7.79h-3.82v-3.85h-4.05v3.85h-3.88v-3.91H325Z" style="fill:#263238"></path><path d="M340.75,208.14v-3.89h-7.87v-3.86h23.49v7.73h-3.89v-3.83h-7.85v3.85l0,0h-3.9Z" style="fill:#263238"></path><path d="M368.14,235.67h3.93v-3.93H376v3.83h3.94v-3.84h3.92v3.86h3.88v3.95H368.15v-3.89Z" style="fill:#263238"></path><path d="M352.44,243.45c0-1.29,0-2.57,0-3.86h0l3.14-.06h.87v-7.8h3.93v3.93h3.95l0,0v3.91l0,0h-3.94v7.79h-3.86v-3.91h-4Z" style="fill:#263238"></path><path d="M309.34,314h-3.89V294.46h3.83v7.76h3.9v3.93h-3.84Z" style="fill:#263238"></path><path d="M340.78,235.69l-.06,3c0,.25,0,.5,0,.8h-7.86v-3.87h-3.93v-4h3.91v-3.91h4l-.06,4.76c0,1,0,2,0,3.22h4Z" style="fill:#263238"></path><path d="M325,302.29v3.88h-3.88V314h-7.84v-3.85h3.88v-7.84Z" style="fill:#263238"></path><path d="M328.93,231.62l-3.06.07H325v3.88h-3.88V223.85H325l0,0v3.91h3.89c0,1.3,0,2.6,0,3.91Z" style="fill:#263238"></path><path d="M313.15,282.59a2.31,2.31,0,0,1,.08.43c0,2.46,0,4.93,0,7.39h0a2.1,2.1,0,0,1-.42.09h-7a2.55,2.55,0,0,1-.34,0v-7.84h7.72Z" style="fill:#263238"></path><path d="M317.23,216c0,.25-.05.5-.05.75,0,3.39,0,6.77,0,10.16v.78h-4V216.06h4.05Z" style="fill:#263238"></path><path d="M380,247.35h3.88v3.93h3.89v4H380l0,0v-7.94Z" style="fill:#263238"></path><path d="M348.57,212c.66,0,1.32.08,2,.1s1.2,0,1.88,0V216h3.92v3.9h-7.71s-.08-.07-.08-.1c0-2.61,0-5.22,0-7.83Z" style="fill:#263238"></path><path d="M336.91,216.1a3.16,3.16,0,0,1-.11-.6c0-2.25,0-4.5,0-6.75,0-.46.12-.61.6-.6,1.12,0,2.25,0,3.37,0h0V212h3.91l0,0v4h-7.06c-.23,0-.45,0-.68.07Z" style="fill:#263238"></path><path d="M368.16,247.35c0-1.3,0-2.59,0-3.89l0,0,6.59,0H380v3.9l0,0c-1.32,0-2.63,0-3.95,0l-7.89,0Z" style="fill:#263238"></path><path d="M289.68,266.92v4h-3.89v3.91h-3.88v-7.87l0,0h7.81Z" style="fill:#263238"></path><path d="M301.53,266.92c-1.07,0-2.13,0-3.2,0l-8.65,0,0,0V263h11.81V267Z" style="fill:#263238"></path><path d="M344.58,231.56c0-1.11.05-2.21.06-3.31,0-1.44,0-2.88,0-4.36h3.87v7.86l-3.93-.2Z" style="fill:#263238"></path><path d="M383.88,282.65v-7.79h3.87v7.77h-3.88Z" style="fill:#263238"></path><path d="M309.28,227.74h-3.83V220h3.83Z" style="fill:#263238"></path><path d="M352.4,239.59l-4.46-.05h-3.35v-3.82h0a1.6,1.6,0,0,1,.42-.1h7.15a1.6,1.6,0,0,1,.23,0v3.94Z" style="fill:#263238"></path><path d="M372.05,270.84H376v4H372l0,0v-4Z" style="fill:#263238"></path><path d="M313.22,290.41l2.81.08h1.1v3.89h-3.9c0-1.33,0-2.66,0-4Z" style="fill:#263238"></path><path d="M336.92,302.31a1.05,1.05,0,0,0-.12.38c0,1.14.06,2.27.1,3.41h-4.12c0-1,.05-2,.07-2.93v-.86Z" style="fill:#263238"></path><path d="M344.58,231.55v4.17h0l-3.81,0,0,0v-4h3.08a4.1,4.1,0,0,0,.7-.12Z" style="fill:#263238"></path><path d="M293.58,235.67h4.05l0,0,0,3.92h-4v-3.91Z" style="fill:#263238"></path><path d="M340.79,310c.65,0,1.31.08,2,.1s1.21,0,1.84,0V314h-3.8v-4Z" style="fill:#263238"></path><path d="M364.27,235.67v-3.93h3.87v3.93l0,0h-3.91Z" style="fill:#263238"></path><path d="M352.38,310v4h-3.8v-3.9c.51,0,1,0,1.53,0,.76,0,1.52-.07,2.28-.11Z" style="fill:#263238"></path><path d="M352.51,223.87h3.85v3.85h-3.85Z" style="fill:#263238"></path><path d="M285.77,278.78v3.83h-3.86v-3.83Z" style="fill:#263238"></path><path d="M301.56,278.8c0,.91-.05,1.82-.07,2.74,0,.34,0,.69,0,1.08h-3.9V278.8h4Z" style="fill:#263238"></path><path d="M380,282.59h-4v-3.81h4c0,1.29,0,2.56,0,3.82Z" style="fill:#263238"></path><path d="M340.79,247.29l3,.07h.8v3.87H340.8v-3.95Z" style="fill:#263238"></path><path d="M278,267l0-3.92,0,0h3.9V267l0,0Z" style="fill:#263238"></path><path d="M383.87,282.63v3.9H380v-3.94h0l3.86,0Z" style="fill:#263238"></path><path d="M344.63,208.14h3.94V212l0,0c-.34,0-.69.11-1,.11-1,0-1.95,0-2.93-.07l0,0v-3.92Z" style="fill:#263238"></path><path d="M352.44,247.33h-3.85v-3.88h3.85v3.88Z" style="fill:#263238"></path><path d="M329,208.19h3.83V212H329Z" style="fill:#263238"></path><path d="M340.8,247.28h-4v-3.79h4v3.8Z" style="fill:#263238"></path><path d="M329,247.32V243.5h3.85v3.82Z" style="fill:#263238"></path><path d="M368.15,239.54l0,3.94,0,0h-3.87v-3.93l0,0h3.91Z" style="fill:#263238"></path><path d="M332.77,306.09v4H329V306.1h3.8Z" style="fill:#263238"></path><path d="M340.8,310c-.58,0-1.15.09-1.73.11-.73,0-1.45,0-2.16,0v-4h0l2.8.07h1.08V310Z" style="fill:#263238"></path><path d="M281.89,239.54h3.91v3.91h-3.91Z" style="fill:#263238"></path><path d="M293.58,306.14H281.91V294.48h11.67Z" style="fill:#263238"></path><path d="M293.58,219.91H281.92v-11.7h11.66Z" style="fill:#263238"></path><path d="M297.63,243.43v3.91h3.89v3.9l-6,0h-1.88v-3.91h-3.87v-3.95Z" style="fill:#263238"></path><path d="M297.61,239.54h7.75v3.91h-7.75Z" style="fill:#263238"></path><path d="M301.51,251.22h3.91v4.08h-3.85Z" style="fill:#263238"></path><path d="M301.56,255.3c0,1-.05,1.95-.07,2.93,0,.26,0,.53,0,.86h-3.87v-3.78h3.94Z" style="fill:#263238"></path><path d="M285.8,251.24h-3.91v-3.91h3.91Z" style="fill:#263238"></path><path d="M336.87,282.63l-4.06,0v-3.88H329v-3.94h3.85v-3.92h3.92v-4h-7.83V263h15.73V267h-3.91v11.79h-3.91v3.92Z" style="fill:#263238"></path><path d="M340.74,278.76h3.86v3.88h-3.85v-3.89Z" style="fill:#263238"></path><path d="M336.84,286.55l0-3.92,0,0h3.9c0,1.3,0,2.6,0,3.91Z" style="fill:#263238"></path><path d="M364.22,290.45h-3.85V286.6h3.85Z" style="fill:#263238"></path><path d="M379.92,208.21v11.67h-11.7V208.21Z" style="fill:#263238"></path></g><polygon points="267.97 210.12 265.97 210.12 265.97 192.34 283.72 192.34 283.72 194.34 267.97 194.34 267.97 210.12" style="fill:#407BFF"></polygon><polygon points="283.72 322.04 265.97 322.04 265.97 304.25 267.97 304.25 267.97 320.04 283.72 320.04 283.72 322.04" style="fill:#407BFF"></polygon><polygon points="395.67 322.04 378 322.04 378 320.04 393.67 320.04 393.67 304.25 395.67 304.25 395.67 322.04" style="fill:#407BFF"></polygon><polygon points="395.67 210.12 393.67 210.12 393.67 194.34 378 194.34 378 192.34 395.67 192.34 395.67 210.12" style="fill:#407BFF"></polygon></g><g id="freepik--Character--inject-153"><path d="M140.67,335.36l-34,27.47c-6.52,5.21-12.15,9.9-14.83,12.6a.08.08,0,0,0,0,.05c-1,1-1.6,1.74-1.63,2.09,0,0,0,.05,0,.07.24,3,40.4,56.34,42.43,57.73s6.14-4.28,6.24-7.59-6.16-30.63-6.16-30.63l33.7-27.76Z" style="fill:#d3766a"></path><path d="M135.82,411.41c1.54,7.18,3,14.71,3,16.37-.09,3.31-4.21,9-6.24,7.59S90.4,380.63,90.17,377.64c0,0,0,0,0-.07,0-.35.62-1.08,1.64-2.09a.06.06,0,0,1,0-.05c2.18-2.19,6.31-5.68,11.27-9.72l3.57-2.89s34-27.47,34-27.47l25.7,34-33.7,27.76s1.59,6.93,3.15,14.23Z" style="fill:#d3766a"></path><path d="M138.83,427.78c-.09,3.31-4.21,9-6.24,7.59S90.4,380.63,90.17,377.64c0,0,0,0,0-.07,0-.35.62-1.08,1.64-2.09a.06.06,0,0,1,0-.05c2.18-2.19,6.31-5.68,11.27-9.72,7.37,14.9,27.58,54.94,31.66,54.66,1.45-.1,1.41-4.67,1-9C137.36,418.59,138.86,426.12,138.83,427.78Z" style="fill:#263238"></path><path d="M159,302.65c-2.4,11.88-51.71,59.3-51.71,59.3l34.38,39.69s70-69.89,66.35-96.15c-3.18-22.84-37.37-114.69-37.37-114.69H131.23S161.41,291,159,302.65Z" style="fill:#37474f"></path><path d="M159,302.65c-2.4,11.88-51.71,59.3-51.71,59.3l34.38,39.69s70-69.89,66.35-96.15c-3.18-22.84-37.37-114.69-37.37-114.69H131.23S161.41,291,159,302.65Z" style="fill:#263238"></path><path d="M145.62,392.2c-4.57-5.69-3.18-4.12-7.81-9.75-2.27-2.76-17.18-20.87-19.74-23.07-.06-.05-.15,0-.12.1,1.72,2.91,16.94,20.75,19.26,23.47,4.74,5.54,3.44,3.9,8.24,9.39A.11.11,0,0,0,145.62,392.2Z" style="fill:#37474f"></path><path d="M163.94,296.85c-.56-3-1.2-5.92-1.83-8.88q-1.92-9-4.07-18.05-4.26-17.85-9.27-35.5c-3.36-11.81-6.92-23.59-11-35.17-.51-1.43-1-2.85-1.55-4.28a.09.09,0,0,0-.18.05c3.55,11.6,7.2,23.16,10.53,34.83s6.37,23.29,9.26,35c1.45,5.89,2.8,11.8,4.12,17.72.65,2.9,1.28,5.82,1.9,8.73a61.63,61.63,0,0,1,1.65,9,13.64,13.64,0,0,1-2.32,8.11c-1.47,2.42-3.21,4.7-4.9,7-3.37,4.57-35.48,40.35-36.51,41.32a.08.08,0,0,0,.12.12c4.31-3.87,31.56-33.36,35-37.92q2.57-3.39,5-6.86a26.82,26.82,0,0,0,3.91-6.91A16.25,16.25,0,0,0,163.94,296.85Z" style="fill:#37474f"></path><path d="M163.86,190.79l-7.16,94c-6.84-32.17-25.46-94-25.46-94Z" style="fill:#37474f"></path><path d="M150.31,384.33s8.52,41.47,8.52,41.5c.11,8.36.36,15.68.84,19.45a.13.13,0,0,0,0,.06,5.92,5.92,0,0,0,.65,2.57l0,0c2.51,1.65,69.28,2.69,71.62,1.94s.4-7.47-2.16-9.58-28-13.94-28-13.94L193,384.94Z" style="fill:#d3766a"></path><path d="M232,449.9c-2.33.75-69.11-.28-71.61-1.93a.34.34,0,0,0-.06-.06,5.82,5.82,0,0,1-.65-2.57s0,0,0-.06c-.37-3-.62-8.27-.75-14.52,17,3.31,59.54,11.18,61.76,7.82.84-1.29-3.34-4.29-7.17-6.68,7.06,3.38,15,7.29,16.33,8.41C232.4,442.43,234.35,449.17,232,449.9Z" style="fill:#263238"></path><path d="M170.25,190.8a162.07,162.07,0,0,0-3.39,19.68c-.82,8.26-1.85,15.56-3,16.47-1.25,1-7.48,5-9.58,6.31,0,0,19.44,58.93,24.45,78.58,7.28,28.47,24.69,113.91,24.69,113.91h-46.4S143,344.41,136.78,317.3c-5.28-23.25-25.54-93-25.54-93a40.44,40.44,0,0,1,1.64-33.53S170.26,190.77,170.25,190.8Z" style="fill:#263238"></path><path d="M201.8,416.72c-7.3,0-5.2-.13-12.5-.09-3.57,0-27,.18-30.35.78a.08.08,0,0,0,0,.15c3.34.5,26.79-.07,30.36-.16,7.29-.18,5.19-.21,12.48-.47A.11.11,0,0,0,201.8,416.72Z" style="fill:#37474f"></path><path d="M167.2,224.63a87.21,87.21,0,0,0-12.81,8.57.16.16,0,0,0,.18.26c4.34-2.72,8.78-5.36,13-8.32A.3.3,0,0,0,167.2,224.63Z" style="fill:#37474f"></path><path d="M163.65,192.57c0-.16-.32-.15-.29,0,.89,5.51,1.29,10.42,1.63,15.65.15,2.43.28,16-4,15.64-.72,0-1.18-.68-1.45-1.71a16.36,16.36,0,0,1-.08-4.14c0-2.85,0-5.68-.23-8.52a77.33,77.33,0,0,0-2.6-15.63.13.13,0,0,0-.26.06,146.4,146.4,0,0,1,2.09,21.81c0,3.52-.92,9,2.76,8.94s4.78-9.08,4.86-11.52A80,80,0,0,0,163.65,192.57Z" style="fill:#37474f"></path><path d="M161.13,224.22a23.59,23.59,0,0,0-.5,2.89,6.25,6.25,0,0,0,0,2.32c0,.14.23.12.3,0a8.09,8.09,0,0,0,.62-2.34c.18-.9.39-1.79.55-2.7A.47.47,0,0,0,161.13,224.22Z" style="fill:#37474f"></path><path d="M151.67,391.15c-.12-1.08-.27-2.15-.42-3.22-.29-2.06-.64-4.11-.95-6.16-.64-4.12-1.35-8.24-2.08-12.35-1.45-8.19-3.13-16.36-4.91-24.49-1-4.6-2.16-9.14-3.39-13.68-.09-.32-.53-.17-.48.14.75,4.16,1.47,8.32,2.32,12.45s1.69,8.25,2.51,12.38c1.62,8.17,3.13,16.36,4.75,24.52.45,2.31.87,4.62,1.32,6.93.22,1.15.45,2.3.7,3.44s.6,2.27.79,3.42c0,.11.18.06.17,0C151.82,393.38,151.8,392.25,151.67,391.15Z" style="fill:#37474f"></path><path d="M183.67,329.48c-1.55-7.7-3.63-15.3-5.73-22.86-4.21-15.23-9.18-30.24-14.13-45.24q-2.15-6.48-4.28-13c-.72-2.16-4.22-13.81-4.65-14.92a.09.09,0,0,0-.18.06c1,4,2.38,9.75,3.54,13.68s2.39,7.74,3.6,11.61c2.37,7.6,4.78,15.18,7.08,22.8,4.55,15.06,9.07,30.11,12.76,45.41,1,4.28,2.07,8.56,3,12.87s1.75,8.62,2.65,12.93c0,.12.22.08.21,0C186.77,345,185.22,337.21,183.67,329.48Z" style="fill:#37474f"></path><path d="M154.82,369.77c-2.56-14.69-5.62-29.3-9-43.82s-7.2-29.09-11.38-43.48-8.81-28.65-13.78-42.78a177.23,177.23,0,0,1-6.3-20.35c-1.53-6.86-2.31-14.29-.71-21.21a35.23,35.23,0,0,1,1.58-5.15c0-.12-.12-.22-.17-.1-5.58,13-2,27.23,2.29,40.05,2.33,7,4.81,14,7.11,21q3.54,10.83,6.78,21.76,6.42,21.64,11.82,43.58t9.52,44.14c2.8,14.84,5.16,29.74,7.55,44.66.31,1.94.55,3.89.81,5.84,0,.1.18.1.17,0C159.31,399.15,157.37,384.43,154.82,369.77Z" style="fill:#37474f"></path><path d="M158.2,95.34c1.19.11,6.32-.65,9.9,3.92,3.4,4.32,5,17.76,5.76,20.67s4.66,3.23,5.67,6.61c.88,2.9-1.22,4-1.37,6.21-.12,1.67,1.64,4.12.2,6.64-1.31,2.28-3.76,1.89-5.21,2.64s-2.25,4.18-4.94,5.19-5.18-1.4-6.62-1.34-3,4.55-7.74,4.31-6.21-4.18-8.18-4.9-6.81.79-9.12-1.57-2.8-5.59-3.84-6.75-3.14-.9-4.48-3.63,1.18-4.56,1.47-7c.19-1.68-1.34-3.17-.38-5.75,1.32-3.56,5.64-3,7.16-6.6,1.19-2.87,3.45-15.24,10.78-18.51C152.32,93.25,158.2,95.34,158.2,95.34Z" style="fill:#263238"></path><path d="M173.7,119.23a4.13,4.13,0,0,0,1.31,1.54l1.57,1.27a12.79,12.79,0,0,1,2.81,2.78,4.09,4.09,0,0,1,.57,3.56,6.15,6.15,0,0,1-.93,1.67,7.07,7.07,0,0,0-1.11,1.83,3.54,3.54,0,0,0,.26,2.21c.24.64.51,1.26.71,1.88a4.84,4.84,0,0,1,0,3.7,2.77,2.77,0,0,1-1.25,1.3,5.05,5.05,0,0,1-1.87.47c-.66.07-1.33.07-2,.1a3.48,3.48,0,0,0-1.95.51,3.61,3.61,0,0,1,1.95-.3c.67,0,1.35.08,2,.07a5.3,5.3,0,0,0,2.06-.41,3.22,3.22,0,0,0,1.57-1.48,5.18,5.18,0,0,0,.14-4.17c-.2-.67-.46-1.3-.68-1.92a2.81,2.81,0,0,1-.22-1.74c.37-1.08,1.55-2.08,2-3.5a4.56,4.56,0,0,0-.76-4.12,12.82,12.82,0,0,0-3.06-2.74l-1.68-1.13A4.6,4.6,0,0,1,173.7,119.23Z" style="fill:#263238"></path><path d="M140.62,102.66a58.43,58.43,0,0,0-2.88,6.66c-.48,1.1-.91,2.23-1.45,3.28a8.22,8.22,0,0,1-.92,1.46,1.37,1.37,0,0,1-.27.27,1.39,1.39,0,0,1-.32.23c-.25.14-.52.27-.78.39a34.55,34.55,0,0,0-3.27,1.65,6.2,6.2,0,0,0-2.57,2.74,3.86,3.86,0,0,0-.31,1.9,4.76,4.76,0,0,0,.61,1.78,8,8,0,0,1,1.24,3.35,7.57,7.57,0,0,0-.9-3.51,4.61,4.61,0,0,1-.47-1.66,3.39,3.39,0,0,1,.37-1.61,5.94,5.94,0,0,1,2.4-2.39,35.75,35.75,0,0,1,3.23-1.55c.28-.14.55-.28.83-.44a2.77,2.77,0,0,0,.77-.68,8,8,0,0,0,1-1.61,29,29,0,0,0,1.38-3.39l1.14-3.45A32.18,32.18,0,0,1,140.62,102.66Z" style="fill:#263238"></path><path d="M131.53,136.19a6.33,6.33,0,0,1,.86,2.4c.21.84.41,1.68.67,2.52a12.62,12.62,0,0,0,1,2.46,5.8,5.8,0,0,0,1.8,2.09,7.24,7.24,0,0,0,5.31.45c.86-.19,1.69-.42,2.53-.59a5.41,5.41,0,0,1,2.53-.07,5.05,5.05,0,0,0-2.59-.3c-.87.09-1.72.26-2.57.37-1.67.23-3.45.32-4.8-.51a5.26,5.26,0,0,1-1.57-1.79,16.57,16.57,0,0,1-1.06-2.3c-.32-.8-.59-1.62-.87-2.44-.16-.41-.31-.81-.49-1.22A2.47,2.47,0,0,0,131.53,136.19Z" style="fill:#263238"></path><path d="M150,150.69c10,20.63,22.69,43,34.57,46.47,11.3,3.34,39.33-24.18,44.23-33.46,1.69-3.2-19.31-18.13-22.43-15.83-5.87,4.32-18.87,18.2-20.64,17.79s-16.55-14.46-29.9-26.29C147.68,132.2,143,136.4,150,150.69Z" style="fill:#d3766a"></path><path d="M211.26,115l-9.13,28.46a1,1,0,0,0,.85,1.59l14.92,1a2.42,2.42,0,0,0,2.17-1.41l9.14-28.45c.36-.83,0-1.55-.86-1.6l-14.92-1A2.41,2.41,0,0,0,211.26,115Z" style="fill:#a6a6a6"></path><path d="M213,115.14l-9.13,28.45c-.36.83,0,1.55.85,1.6l14.93,1a2.42,2.42,0,0,0,2.16-1.41L231,116.29c.36-.83,0-1.55-.85-1.6l-14.93-1A2.41,2.41,0,0,0,213,115.14Z" style="fill:#dbdbdb"></path><path d="M217,116.72a1.27,1.27,0,1,1-1.16-1.37A1.27,1.27,0,0,1,217,116.72Z" style="fill:#455a64"></path><path d="M236.19,147.67c1.53-8.31.65-10.68,5.66-17,3.29-4.15,2.05-8-3-5.8-8.24,3.64-12.47,13.95-12.9,17.94Z" style="fill:#d3766a"></path><path d="M224.71,169.2s8.09-8.85,10.59-17.54c1.74-6,4-19.5-8.77-33.07-3-3.22-9.66-5.65-6.6,1.41,2.17,5,5.06,7.54,5.79,10.69,0,0-8.78-2.1-11.88,1.08a80.75,80.75,0,0,0-7.53,8.86,17.38,17.38,0,0,0,1.53,1.56s-2.62,3.24-2.29,9.56Z" style="fill:#d3766a"></path><path d="M236,145.66c-1.39-3-4.43-9.21-8.7-13.46-4.74-4.71-15.14-12.51-18.59-9-2.52,2.6,1.19,5.92,1.19,5.92s-5-2.31-6.75.53c-1.61,2.59,1.41,5,1.41,5s-3.26-.89-4.33,1.9c-1.29,3.36,5.76,4.67,7.39,9.2C208,146.78,236,145.66,236,145.66Z" style="fill:#d3766a"></path><path d="M223.2,138a26.69,26.69,0,0,0-13.13-8.94c-.13,0-.23.05-.11.11a65.24,65.24,0,0,1,13.19,8.88A0,0,0,0,0,223.2,138Z" style="fill:#263238"></path><path d="M218.3,142.69c-1.75-2.07-7.65-6.8-13.63-8.14-.14,0-.23.06-.11.11a70.74,70.74,0,0,1,13.7,8.08S218.32,142.72,218.3,142.69Z" style="fill:#263238"></path><path d="M198.81,151.32l21.59,24.43s-24.47,25.72-35.47,22.59-31-33.82-37.09-53.09c-4.22-13.33,3-11,10.54-4.27s27.11,23.41,28,23.2S198.81,151.32,198.81,151.32Z" style="fill:#dbdbdb"></path><path d="M147.83,145.25c6.11,19.27,26.1,50,37.1,53.09,4.86,1.38,12.36-2.87,19.22-8.05,0,0,0,0,0,0-10.93-12-40.1-41.2-53.3-54.34C147.13,134.62,145.15,136.75,147.83,145.25Z" style="fill:#c7c7c7"></path><path d="M213,179.46c-3.13-3.37-15.45-17.65-17.9-20.91-.17-.23-.07-.39.14-.18,9.63,9.89,15,17.5,17.89,21C213.22,179.42,213.1,179.55,213,179.46Z" style="fill:#263238"></path><path d="M112.59,191.73l59,1L167,175a18.47,18.47,0,0,0,2.66-15.4c-1.42-5.19-8.13-13-12.25-17.93-10-12-18.73-6.6-21.5-3.5C125.25,150,112.59,191.73,112.59,191.73Z" style="fill:#dbdbdb"></path><path d="M151.17,174a52,52,0,0,1,7.59-.12c1.25.09,2.49.23,3.74.41.62.08,1.24.15,1.87.21a8,8,0,0,0,2,0c.06,0,.07.08,0,.09a14,14,0,0,1-1.83.3,12,12,0,0,1-1.8,0c-1.28-.08-2.55-.22-3.82-.31-2.57-.18-5.14-.37-7.71-.37C151.06,174.21,151.05,174,151.17,174Z" style="fill:#263238"></path><path d="M145.44,177.32a55.07,55.07,0,0,1,6.1-1.42c1-.17,2.06-.29,3.1-.37.5-.05,1-.08,1.5-.1s1.1,0,1.65,0c.05,0,.07.09,0,.09-.52,0-1,.19-1.54.27l-1.54.24c-1,.16-2.06.33-3.09.48-2.06.31-4.11.63-6.17,1A.08.08,0,1,1,145.44,177.32Z" style="fill:#263238"></path><path d="M143.15,135.65c.08,1.08,4,8.59,8.81,9.09,1.56.16,2.81-8.32,2.81-8.32l.24-.6,3.29-8.46L149,119.19l-1.35-1.1s-.75,2.37-1.65,5.34c0,.14-.09.27-.13.42s-.11.32-.16.48c-.14.44-.28.89-.41,1.35s-.2.68-.29,1-.2.72-.3,1.08A58.41,58.41,0,0,0,143.15,135.65Z" style="fill:#d3766a"></path><path d="M146,123.43a18.21,18.21,0,0,0,9,12.39l3.29-8.46L149,119.19l-1.35-1.1S146.91,120.46,146,123.43Z" style="fill:#263238"></path><path d="M172.86,112.84c2.94,15.66-6.12,19.18-9.49,19.81-3.07.57-13.59,2.13-18.12-13.15s1.82-21.59,8.77-23.27S169.93,97.17,172.86,112.84Z" style="fill:#d3766a"></path><path d="M170.18,111.93a10,10,0,0,1-1.1-.1,1.72,1.72,0,0,1-1.1-.32.56.56,0,0,1-.08-.68,1.41,1.41,0,0,1,1.34-.49,2.06,2.06,0,0,1,1.37.58A.6.6,0,0,1,170.18,111.93Z" style="fill:#263238"></path><path d="M159.55,112.77c.37-.09.69-.23,1-.35a1.79,1.79,0,0,0,1-.56.57.57,0,0,0-.08-.69,1.4,1.4,0,0,0-1.41-.16,2,2,0,0,0-1.21.87A.61.61,0,0,0,159.55,112.77Z" style="fill:#263238"></path><path d="M162.24,115.54s-.08.07-.07.11c.18,1.07.21,2.33-.71,2.82,0,0,0,.07,0,.06C162.64,118.19,162.58,116.53,162.24,115.54Z" style="fill:#263238"></path><path d="M161.12,114.55c-1.75.11-1.4,3.6.22,3.5S162.59,114.46,161.12,114.55Z" style="fill:#263238"></path><path d="M160.46,114.81c-.29.22-.55.6-.92.68s-.77-.25-1.09-.58c0,0-.06,0,0,0,0,.67.38,1.33,1.11,1.36s1.07-.62,1.17-1.3C160.7,114.89,160.57,114.72,160.46,114.81Z" style="fill:#263238"></path><path d="M168.18,114.43s.09,0,.1.09c.06,1.08.32,2.31,1.33,2.58,0,0,0,.06,0,.06C168.4,117.1,168.07,115.47,168.18,114.43Z" style="fill:#263238"></path><path d="M169.05,113.21c1.72-.29,2.18,3.19.58,3.46S167.6,113.46,169.05,113.21Z" style="fill:#263238"></path><path d="M169.8,113.35c.3.15.61.44.94.42s.62-.43.81-.83c0,0,.06,0,.06,0,.11.67,0,1.39-.64,1.6s-1.07-.32-1.31-1C169.61,113.49,169.68,113.29,169.8,113.35Z" style="fill:#263238"></path><path d="M163.11,124.67c.27.24.55.57.95.58a2.93,2.93,0,0,0,1.15-.33,0,0,0,0,1,0,0,1.47,1.47,0,0,1-1.35.66,1.15,1.15,0,0,1-.9-.91C163,124.66,163.07,124.63,163.11,124.67Z" style="fill:#263238"></path><path d="M167.18,120.27a23.21,23.21,0,0,1,.49,2.34c0,.07-.17.13-.43.17,0,0,0,0,0,0a3.62,3.62,0,0,1-3.65-1c-.07-.07,0-.16.1-.12a5.51,5.51,0,0,0,3.4.58c0-.22-.78-2.7-.66-2.72a6.72,6.72,0,0,1,1.77.2c-.74-3.33-2-6.51-2.7-9.83a.1.1,0,0,1,.19-.07A54.69,54.69,0,0,1,169,120.33C169.13,120.76,167.5,120.36,167.18,120.27Z" style="fill:#263238"></path><path d="M167.14,122.51a4.47,4.47,0,0,1-1.51,1.64,1.93,1.93,0,0,1-1.17.28c-.9-.08-1.05-.86-1-1.56a4.94,4.94,0,0,1,.2-1.1A5.72,5.72,0,0,0,167.14,122.51Z" style="fill:#263238"></path><path d="M165.63,124.15a1.93,1.93,0,0,1-1.17.28c-.9-.08-1.05-.86-1-1.56A2,2,0,0,1,165.63,124.15Z" style="fill:#ff9abb"></path><path d="M145.34,120.36a6.58,6.58,0,0,0,3.49-5.49,17.16,17.16,0,0,0,6.79-5.9c-.1.34-.78,2.74-1.17,4,10.07-2.27,12.92-10.14,12.92-10.14a17.53,17.53,0,0,1,4.65,6.26s-.16-6.21-3.5-10.26A10.05,10.05,0,0,0,159.11,95a14.33,14.33,0,0,0-13.82,4.82C139,107.23,145.34,120.36,145.34,120.36Z" style="fill:#263238"></path><path d="M162.09,111a19.19,19.19,0,0,1-5.12,2.1s0,0,0,0a15.81,15.81,0,0,0,7.27-4.77,15,15,0,0,0,2.08-3.13,10.45,10.45,0,0,0,1.2-3.92.08.08,0,0,1,.16,0,12.15,12.15,0,0,1-.66,4,11.14,11.14,0,0,1-2.13,3.44,12.77,12.77,0,0,1-2.79,2.28" style="fill:#263238"></path><path d="M148.17,118.82s-3.95-4.61-6.08-3.16,1.19,8.38,3.92,9.1a2.69,2.69,0,0,0,3.45-1.8Z" style="fill:#d3766a"></path><path d="M143.09,117.62s-.05.07,0,.08c1.93.56,3.07,2.18,3.93,3.89a1.49,1.49,0,0,0-2.26-.18s0,.11.06.09a1.64,1.64,0,0,1,1.87.4,7.69,7.69,0,0,1,1,1.38c.1.16.39,0,.31-.15l0,0C147.8,120.73,145.64,117.61,143.09,117.62Z" style="fill:#263238"></path><path d="M133.13,141.26c-13.77,23-34.65,75.9-38.39,83.45-2.53,5.13,24.27,19.14,25.47,15.4,1.54-4.79,21.19-66.48,22.82-94.11C143.78,133.2,137.54,133.91,133.13,141.26Z" style="fill:#d3766a"></path><path d="M121,237.53c-.69,4.68-4,14.06-6.4,15.46s-14.81.91-21.07.82-7.48-1.85-7.34-4,13.28-2.37,13.28-2.37-17.62,4.77-22,5.53-14.64,3.17-16.06-.51c-.64-1.66,2.17-3.29,2.17-3.29s-4.28,1.18-4.93-.95c-.74-2.43,2.67-3.71,2.67-3.71s-2.67.5-2.7-1.47c-.08-4.4,16.65-6.31,16.65-6.31s-12.87,6-13.23,2.44c-.5-5,25.78-10,28.54-12.17a51.53,51.53,0,0,0,5.63-5.31Z" style="fill:#d3766a"></path><path d="M86.24,250.9a1.91,1.91,0,0,1,.62-1.67,5.09,5.09,0,0,1,1.54-1,19.78,19.78,0,0,1,3.6-1.11c2.48-.59,5-1,7.55-1.61a30.66,30.66,0,0,0-7.75.75,14.4,14.4,0,0,0-3.71,1.36,5,5,0,0,0-1.56,1.3A2,2,0,0,0,86.24,250.9Z" style="fill:#263238"></path><path d="M63.5,249.16c1.82-.41,3.6-.9,5.39-1.39s3.56-1,5.33-1.51l5.32-1.58c1.77-.53,3.54-1.05,5.33-1.55a39.17,39.17,0,0,0-5.5.9c-1.82.38-3.61.88-5.39,1.39s-3.55,1.08-5.29,1.71S65.2,248.4,63.5,249.16Z" style="fill:#263238"></path><path d="M80.69,238.68a34.43,34.43,0,0,0-5.07.63,47.48,47.48,0,0,0-5,1.2,43.88,43.88,0,0,0-4.82,1.72,37.49,37.49,0,0,0-4.58,2.27c1.63-.53,3.21-1.13,4.82-1.64s3.21-1,4.83-1.51,3.25-.93,4.88-1.39S79,239.1,80.69,238.68Z" style="fill:#263238"></path><path d="M78.17,234.45A31.45,31.45,0,0,0,70.08,236a31.11,31.11,0,0,0-7.46,3.48c2.61-.89,5.14-1.83,7.74-2.65S75.54,235.26,78.17,234.45Z" style="fill:#263238"></path><path d="M93.18,223.48l29.39,14.9S140.76,172,143,150.52s-6.11-16.65-12-6.63C123,157.58,93.18,223.48,93.18,223.48Z" style="fill:#dbdbdb"></path><path d="M122,230.85c-4-1.69-20.15-9.23-23.53-11.09-.23-.13-.21-.31.06-.21,12.13,4.79,19.69,9.28,23.53,11.14A.09.09,0,1,1,122,230.85Z" style="fill:#263238"></path><path d="M133.53,196.13c.48-3.16,1.08-6.3,1.69-9.44s1.29-6.26,2-9.38,1.41-6.23,2.19-9.33l1.18-4.64c.43-1.54.83-3.09,1.29-4.63-.24,1.59-.54,3.16-.8,4.74l-.9,4.7c-.6,3.14-1.28,6.26-2,9.38s-1.41,6.23-2.19,9.33S134.43,193.06,133.53,196.13Z" style="fill:#263238"></path><path d="M140,166.84a11.56,11.56,0,0,1,1-2.34,11.22,11.22,0,0,1,1.43-2.09,11.71,11.71,0,0,1-1,2.33A11.29,11.29,0,0,1,140,166.84Z" style="fill:#263238"></path></g><g id="freepik--Suitcase--inject-153"><rect x="112.33" y="256.78" width="4.1" height="55.1" transform="translate(228.76 568.65) rotate(180)" style="fill:#dbdbdb"></rect><rect x="71.63" y="256.78" width="4.1" height="55.1" transform="translate(147.35 568.65) rotate(180)" style="fill:#dbdbdb"></rect><rect x="110.72" y="252.17" width="7.1" height="9.42" transform="translate(228.54 513.77) rotate(180)" style="fill:#263238"></rect><rect x="70.12" y="252.17" width="7.1" height="9.42" transform="translate(147.35 513.77) rotate(180)" style="fill:#263238"></rect><polygon points="70.12 249.78 70.12 256.89 80.3 256.89 82.3 258.31 105.65 258.31 107.65 256.89 117.82 256.89 117.82 249.78 107.65 249.78 105.65 251.21 82.3 251.21 80.3 249.78 70.12 249.78" style="fill:#263238"></polygon><rect x="49.17" y="311.87" width="89.7" height="127.32" transform="translate(188.05 751.07) rotate(180)" style="fill:#407BFF"></rect><rect x="49.17" y="311.87" width="89.7" height="127.32" transform="translate(188.05 751.07) rotate(180)" style="opacity:0.1"></rect><rect x="59.02" y="321.73" width="70.02" height="107.62" transform="translate(188.05 751.07) rotate(180)" style="fill:#407BFF"></rect><g style="opacity:0.1"><path d="M121.37,326.31c-.19,8.2-.28,16.41-.36,24.61l-.1,24.62.1,24.61.13,12.31.23,12.3.22-12.3.13-12.31.11-24.61-.11-24.62C121.65,342.72,121.56,334.51,121.37,326.31Z"></path><path d="M112.3,326.31c-.19,8.2-.28,16.41-.35,24.61l-.11,24.62.11,24.61.13,12.31.22,12.3.23-12.3.13-12.31.11-24.61-.11-24.62C112.58,342.72,112.5,334.51,112.3,326.31Z"></path><path d="M103.24,326.31c-.19,8.2-.28,16.41-.35,24.61l-.11,24.62.11,24.61.13,12.31.22,12.3.23-12.3.13-12.31.1-24.61-.1-24.62C103.52,342.72,103.43,334.51,103.24,326.31Z"></path><path d="M94.18,326.31c-.19,8.2-.28,16.41-.35,24.61l-.11,24.62.1,24.61L94,412.46l.23,12.3.23-12.3.13-12.31.1-24.61-.11-24.62C94.46,342.72,94.37,334.51,94.18,326.31Z"></path><path d="M85.12,326.31c-.19,8.2-.28,16.41-.36,24.61l-.1,24.62.1,24.61.13,12.31.23,12.3.22-12.3.13-12.31.11-24.61-.11-24.62C85.4,342.72,85.31,334.51,85.12,326.31Z"></path><path d="M76.05,326.31c-.19,8.2-.27,16.41-.35,24.61l-.11,24.62.11,24.61.13,12.31.22,12.3.23-12.3.13-12.31.11-24.61-.11-24.62C76.33,342.72,76.25,334.51,76.05,326.31Z"></path><path d="M67,326.31c-.19,8.2-.28,16.41-.35,24.61l-.11,24.62.11,24.61.13,12.31.22,12.3.23-12.3.13-12.31.1-24.61-.1-24.62C67.27,342.72,67.18,334.51,67,326.31Z"></path></g><polygon points="138.88 429.39 121.98 429.39 115.22 439.2 138.88 439.2 138.88 429.39" style="fill:#263238"></polygon><polygon points="49.17 429.39 66.07 429.39 72.83 439.2 49.17 439.2 49.17 429.39" style="fill:#263238"></polygon><polygon points="138.88 341.34 143.59 340.42 143.59 329.86 138.88 328.93 138.88 341.34" style="fill:#263238"></polygon><polygon points="138.88 422.14 143.59 421.21 143.59 410.65 138.88 409.73 138.88 422.14" style="fill:#263238"></polygon><path d="M41.39,375.54c0,19.35,4.71,31.23,4.71,31.23h3.07V388.85H45.28V362.22h3.89V344.3H46.1S41.39,356.18,41.39,375.54Z" style="fill:#263238"></path><path d="M44.2,400.35a52,52,0,0,0,1.9,6.42h3.07v-6.42Z" style="fill:#dbdbdb"></path><path d="M44.2,350.72h5V344.3H46.1A52.78,52.78,0,0,0,44.2,350.72Z" style="fill:#dbdbdb"></path><path d="M93.56,305c-19.35,0-23.84,4.71-23.84,4.71v2.15H81.18v-3H106v3h12.38v-2.15S112.92,305,93.56,305Z" style="fill:#263238"></path><polygon points="128.24 447.06 132.42 447.06 135.19 439.2 126.17 439.2 128.75 443.13 128.24 447.06" style="fill:#263238"></polygon><path d="M124.36,449.44a5.76,5.76,0,1,0,5.76-5.76A5.76,5.76,0,0,0,124.36,449.44Z" style="fill:#37474f"></path><path d="M127,449.44a3.15,3.15,0,1,0,3.15-3.15A3.15,3.15,0,0,0,127,449.44Z" style="fill:#dbdbdb"></path><ellipse cx="130.18" cy="447.53" rx="0.12" ry="0.82" style="fill:#263238"></ellipse><path d="M131.43,448.05c-.32.32-.54.61-.5.66s.35-.17.67-.49.54-.62.49-.67S131.75,447.73,131.43,448.05Z" style="fill:#263238"></path><ellipse cx="132.03" cy="449.5" rx="0.82" ry="0.12" style="fill:#263238"></ellipse><path d="M131.52,450.74c-.32-.32-.62-.54-.67-.49s.17.35.49.67.62.54.67.49S131.84,451.06,131.52,450.74Z" style="fill:#263238"></path><ellipse cx="130.07" cy="451.35" rx="0.12" ry="0.82" style="fill:#263238"></ellipse><path d="M128.82,450.83c.32-.32.54-.61.49-.66s-.34.17-.66.49-.54.62-.5.67S128.5,451.15,128.82,450.83Z" style="fill:#263238"></path><ellipse cx="128.22" cy="449.38" rx="0.82" ry="0.12" style="fill:#263238"></ellipse><path d="M128.73,448.14c.32.32.62.54.66.49s-.17-.35-.49-.67-.62-.54-.66-.49S128.41,447.82,128.73,448.14Z" style="fill:#263238"></path><polygon points="59.81 447.06 55.63 447.06 52.86 439.2 61.88 439.2 59.3 443.13 59.81 447.06" style="fill:#263238"></polygon><path d="M63.69,449.44a5.76,5.76,0,1,1-5.76-5.76A5.76,5.76,0,0,1,63.69,449.44Z" style="fill:#37474f"></path><path d="M61.08,449.44a3.15,3.15,0,1,1-3.15-3.15A3.15,3.15,0,0,1,61.08,449.44Z" style="fill:#dbdbdb"></path><ellipse cx="57.87" cy="447.53" rx="0.12" ry="0.82" style="fill:#263238"></ellipse><path d="M56.63,448.05c.32.32.54.61.49.66s-.35-.17-.67-.49-.54-.62-.49-.67S56.31,447.73,56.63,448.05Z" style="fill:#263238"></path><path d="M56,449.38c.46,0,.82.05.82.12s-.36.12-.82.12-.82-.06-.82-.12S55.57,449.38,56,449.38Z" style="fill:#263238"></path><path d="M56.54,450.74c.32-.32.61-.54.66-.49s-.17.35-.49.67-.62.54-.67.49S56.22,451.06,56.54,450.74Z" style="fill:#263238"></path><path d="M57.87,451.35c0-.46.05-.82.12-.82s.12.36.12.82-.06.82-.12.82S57.87,451.8,57.87,451.35Z" style="fill:#263238"></path><path d="M59.23,450.83c-.32-.32-.54-.61-.49-.66s.35.17.67.49.54.62.49.67S59.55,451.15,59.23,450.83Z" style="fill:#263238"></path><ellipse cx="59.84" cy="449.38" rx="0.82" ry="0.12" style="fill:#263238"></ellipse><ellipse cx="59.24" cy="448.05" rx="0.82" ry="0.12" transform="translate(-299.47 173.12) rotate(-45)" style="fill:#263238"></ellipse></g></svg>