<svg xmlns="http://www.w3.org/2000/svg" viewBox="0 0 500 500"><g id="freepik--Floor--inject-151"><path d="M473.14,480.69c0,.14-100.8.26-225.13.26s-225.15-.12-225.15-.26,100.78-.26,225.15-.26S473.14,480.54,473.14,480.69Z" style="fill:#263238"></path></g><g id="freepik--Device--inject-151"><path d="M309.11,377.21l-118.3-.07a25.76,25.76,0,0,1-25.76-25.77l.06-296.58A25.77,25.77,0,0,1,190.89,29l118.31.07A25.78,25.78,0,0,1,335,54.87l-.06,296.58A25.76,25.76,0,0,1,309.11,377.21Z" style="fill:#263238"></path><path d="M309.07,39.58H286.13a5.7,5.7,0,0,0-5.57,5.82v4.16A5.7,5.7,0,0,1,275,55.37l-44.71,0a5.71,5.71,0,0,1-5.57-5.83V45.35a5.71,5.71,0,0,0-5.57-5.82H191A18,18,0,0,0,173,57.56L172.89,347a18.05,18.05,0,0,0,18,18.06l118.06.06a18,18,0,0,0,18.06-18l.06-289.49A18.06,18.06,0,0,0,309.07,39.58Z" style="fill:#fff"></path><path d="M327.11,57.63a18.06,18.06,0,0,0-18-18.05H286.13a5.7,5.7,0,0,0-5.57,5.82v4.16A5.7,5.7,0,0,1,275,55.37l-44.71,0a5.71,5.71,0,0,1-5.57-5.83V45.35a5.71,5.71,0,0,0-5.57-5.82H191A18,18,0,0,0,173,57.56l-.06,27.68H327.1Z" style="fill:#f5f5f5"></path><path d="M314.56,67.8a59.89,59.89,0,0,1-6.17.21c-3.41,0-6.18,0-6.18-.1a59.89,59.89,0,0,1,6.17-.21C311.79,67.67,314.56,67.72,314.56,67.8Z" style="fill:#263238"></path><path d="M314.58,71a59.7,59.7,0,0,1-6.17.21c-3.41,0-6.17,0-6.17-.1a59.89,59.89,0,0,1,6.17-.21C311.82,70.83,314.58,70.88,314.58,71Z" style="fill:#263238"></path><path d="M314.61,74.12a59.89,59.89,0,0,1-6.17.21,58.61,58.61,0,0,1-6.18-.11c0-.08,2.77-.18,6.18-.2S314.61,74,314.61,74.12Z" style="fill:#263238"></path></g><g id="freepik--Checkmark--inject-151"><path d="M269.43,331.89a30,30,0,0,0-.68-4.49,17.84,17.84,0,0,0-2.06-4.88,18.31,18.31,0,0,0-22-7.77,17,17,0,0,0-4.62,2.49A20.08,20.08,0,0,0,238,319a21.34,21.34,0,0,0-1.78,2.11,18.16,18.16,0,0,0,0,21.57,21.34,21.34,0,0,0,1.78,2.11,20.08,20.08,0,0,0,2.07,1.76,17,17,0,0,0,4.62,2.49,18.37,18.37,0,0,0,22-7.77,17.84,17.84,0,0,0,2.06-4.88,30,30,0,0,0,.68-4.5,1.43,1.43,0,0,1,0,.3c0,.23,0,.52,0,.89a9,9,0,0,1-.12,1.43,14.28,14.28,0,0,1-.35,1.93,17.59,17.59,0,0,1-2,5,18.71,18.71,0,0,1-12.56,8.87,18.68,18.68,0,0,1-9.83-.79A17.32,17.32,0,0,1,239.8,347a17,17,0,0,1-4-4,18.62,18.62,0,0,1,0-22.17,21.29,21.29,0,0,1,1.84-2.17,20.09,20.09,0,0,1,2.13-1.8,17.32,17.32,0,0,1,4.75-2.54,18.68,18.68,0,0,1,9.83-.79,18.74,18.74,0,0,1,12.56,8.86,17.64,17.64,0,0,1,2,5,14.28,14.28,0,0,1,.35,1.93,9,9,0,0,1,.12,1.43c0,.37,0,.66,0,.88A1.36,1.36,0,0,1,269.43,331.89Z" style="fill:#407BFF"></path><polygon points="250.24 339.58 241.32 331.91 244 328.8 249.98 333.94 259.38 324.21 262.33 327.06 250.24 339.58" style="fill:#407BFF"></polygon></g><g id="freepik--Code--inject-151"><polygon points="198.65 212.44 198.65 218.04 204.24 218.04 204.24 212.44 204.24 206.84 198.65 206.84 198.65 212.44" style="fill:#263238"></polygon><rect x="198.64" y="178.86" width="5.6" height="5.6" style="fill:#263238"></rect><rect x="233.23" y="240.48" width="5.6" height="5.6" style="fill:#263238"></rect><polygon points="204.24 190.05 204.24 195.65 198.65 195.65 198.65 201.25 204.24 201.25 204.24 206.84 209.84 206.84 215.44 206.84 215.44 212.44 221.03 212.44 221.03 206.84 226.63 206.84 226.63 201.25 226.63 195.65 221.03 195.65 221.03 201.25 215.44 201.25 209.84 201.25 209.84 195.65 209.84 190.05 209.84 184.45 204.24 184.45 204.24 190.05" style="fill:#263238"></polygon><polygon points="215.44 178.86 209.84 178.86 209.84 184.45 215.44 184.45 221.03 184.45 221.03 178.86 215.44 178.86" style="fill:#263238"></polygon><polygon points="240.62 223.85 243.63 223.85 243.63 218.25 240.62 218.25 237.62 218.25 237.62 223.85 240.62 223.85" style="fill:#263238"></polygon><rect x="221.03" y="184.45" width="5.6" height="5.6" style="fill:#263238"></rect><rect x="260.21" y="206.84" width="5.6" height="5.6" style="fill:#263238"></rect><rect x="265.81" y="145.27" width="5.6" height="5.6" style="fill:#263238"></rect><polygon points="237.82 190.05 237.82 184.45 243.42 184.45 243.42 178.86 237.82 178.86 237.82 173.26 232.23 173.26 232.23 178.86 226.63 178.86 226.63 184.45 232.23 184.45 232.23 190.05 232.23 195.65 232.23 201.25 232.23 206.84 237.82 206.84 237.82 201.25 237.82 195.65 243.42 195.65 243.42 190.05 237.82 190.05" style="fill:#263238"></polygon><polygon points="265.81 246.02 271.41 246.02 271.41 240.43 265.81 240.43 260.21 240.43 260.21 246.02 265.81 246.02" style="fill:#263238"></polygon><rect x="254.62" y="145.27" width="5.6" height="5.6" style="fill:#263238"></rect><polygon points="258.81 190.05 258.81 184.45 253.22 184.45 253.22 178.86 247.62 178.86 247.62 184.45 247.62 190.05 242.02 190.05 242.02 195.65 247.62 195.65 253.22 195.65 253.22 190.05 258.81 190.05" style="fill:#263238"></polygon><rect x="284.81" y="178.86" width="5.6" height="5.6" style="fill:#263238"></rect><rect x="226.79" y="206.84" width="5.6" height="5.6" style="fill:#263238"></rect><polygon points="254.62 173.26 254.62 167.66 260.21 167.66 260.21 162.06 265.81 162.06 271.41 162.06 271.41 156.47 265.81 156.47 265.81 150.87 260.21 150.87 260.21 156.47 254.62 156.47 254.62 162.06 249.02 162.06 249.02 167.66 243.42 167.66 243.42 173.26 249.02 173.26 254.62 173.26" style="fill:#263238"></polygon><polygon points="254.62 212.44 254.62 206.84 260.21 206.84 260.21 201.25 254.62 201.25 249.02 201.25 249.02 206.84 243.42 206.84 243.42 212.44 249.02 212.44 254.62 212.44" style="fill:#263238"></polygon><polygon points="271.41 234.83 271.41 229.23 265.81 229.23 260.21 229.23 260.21 223.63 254.62 223.63 254.62 229.23 249.02 229.23 249.02 234.83 243.42 234.83 237.82 234.83 237.82 240.42 243.42 240.42 249.02 240.42 254.62 240.42 254.62 234.83 260.21 234.83 260.21 240.42 265.81 240.42 265.81 234.83 271.41 234.83" style="fill:#263238"></polygon><polygon points="249.02 150.87 249.02 145.27 243.42 145.27 237.82 145.27 237.82 150.87 232.23 150.87 232.23 156.47 237.82 156.47 243.42 156.47 243.42 150.87 249.02 150.87" style="fill:#263238"></polygon><rect x="243.42" y="156.47" width="5.6" height="5.6" style="fill:#263238"></rect><polygon points="263.01 178.86 257.42 178.86 257.42 184.45 257.42 190.05 257.42 195.65 263.01 195.65 268.61 195.65 268.61 190.05 263.01 190.05 263.01 184.45 268.61 184.45 268.61 178.86 274.21 178.86 274.21 173.26 268.61 173.26 268.61 167.66 263.01 167.66 263.01 173.26 263.01 178.86" style="fill:#263238"></polygon><rect x="237.83" y="162.07" width="5.6" height="5.6" style="fill:#263238"></rect><polygon points="260.21 218.04 260.21 223.63 265.81 223.63 271.41 223.63 271.41 218.04 277.01 218.04 282.6 218.04 282.6 212.44 277.01 212.44 271.41 212.44 265.81 212.44 265.81 218.04 260.21 218.04" style="fill:#263238"></polygon><rect x="284.81" y="195.65" width="5.6" height="5.6" style="fill:#263238"></rect><rect x="265.81" y="201.25" width="5.6" height="5.6" style="fill:#263238"></rect><polygon points="285.4 184.45 279.81 184.45 274.21 184.45 274.21 190.05 279.81 190.05 279.81 195.65 285.4 195.65 285.4 190.05 285.4 184.45" style="fill:#263238"></polygon><rect x="277.01" y="201.25" width="5.6" height="5.6" style="fill:#263238"></rect><path d="M221,234.93h16.8v-22.5h-22.5V218h-5.49v5.59h5.49v5.6h-5.49v5.6h5.49v.1h.11v5.5h-5.6v11.19h5.6V246H221V234.93Zm12.49-18.19v14h-14v-14Z" style="fill:#263238"></path><polygon points="293.8 212.44 299.39 212.44 299.39 206.84 293.8 206.84 288.2 206.84 282.6 206.84 282.6 212.44 288.2 212.44 293.8 212.44" style="fill:#263238"></polygon><polygon points="293.8 190.05 299.39 190.05 299.39 184.45 299.39 178.86 293.8 178.86 293.8 184.45 293.8 190.05" style="fill:#263238"></polygon><polygon points="249.23 218.25 243.63 218.25 243.63 223.85 243.63 229.45 249.23 229.45 249.23 223.85 249.23 218.25" style="fill:#263238"></polygon><rect x="299.39" y="212.44" width="5.6" height="5.6" style="fill:#263238"></rect><polygon points="304.99 201.25 304.99 195.65 299.39 195.65 299.39 201.25 299.39 206.84 304.99 206.84 304.99 201.25" style="fill:#263238"></polygon><polygon points="204.24 240.43 198.65 240.43 198.65 246.02 198.65 251.62 204.24 251.62 204.24 246.02 204.24 240.43" style="fill:#263238"></polygon><path d="M305,173.26v-28H277v28Zm-23.79-4.2V149.47h19.59v19.59Z" style="fill:#263238"></path><rect x="285.4" y="153.67" width="11.19" height="11.19" style="fill:#263238"></rect><path d="M305,223.63H277v28h28ZM281.2,247.42V227.83h19.59v19.59Z" style="fill:#263238"></path><rect x="285.4" y="232.03" width="11.19" height="11.19" style="fill:#263238"></rect><path d="M198.57,145.27v28h28v-28Zm23.79,4.2v19.59H202.77V149.47Z" style="fill:#263238"></path><rect x="206.97" y="153.67" width="11.19" height="11.19" style="fill:#263238"></rect><path d="M190.59,164.78V144.91a7.31,7.31,0,0,1,1.58-5.07,6.89,6.89,0,0,1,5.45-2.26h20.9a.63.63,0,0,0,0-1.25H197.85a8.74,8.74,0,0,0-5,1.26,7.93,7.93,0,0,0-3.52,6.53c-.06,3.27,0,6.55,0,9.82v10.84a.63.63,0,0,0,1.25,0Z" style="fill:#407BFF"></path><path d="M216.69,261.07H196.81a7.37,7.37,0,0,1-5.07-1.57,6.9,6.9,0,0,1-2.26-5.45v-20.9a.63.63,0,0,0-1.25,0v20.67a8.81,8.81,0,0,0,1.26,5,7.88,7.88,0,0,0,6.53,3.52c3.27.06,6.55,0,9.82,0h10.85a.63.63,0,0,0,0-1.25Z" style="fill:#407BFF"></path><path d="M312.37,233v19.88a7.34,7.34,0,0,1-1.57,5.06,6.9,6.9,0,0,1-5.45,2.26h-20.9a.63.63,0,0,0,0,1.25h20.67a8.71,8.71,0,0,0,5-1.26,7.85,7.85,0,0,0,3.52-6.52c.06-3.28,0-6.55,0-9.82V233a.63.63,0,0,0-1.25,0Z" style="fill:#407BFF"></path><path d="M284.81,137.58h19.88a7.3,7.3,0,0,1,5.06,1.58,6.89,6.89,0,0,1,2.26,5.45v20.9a.63.63,0,0,0,1.25,0V144.84a8.74,8.74,0,0,0-1.26-5,7.89,7.89,0,0,0-6.53-3.52c-3.27-.06-6.54,0-9.81,0H284.81a.63.63,0,0,0,0,1.25Z" style="fill:#407BFF"></path></g><g id="freepik--Character--inject-151"><rect x="209.62" y="273.65" width="4" height="92.37" style="fill:#263238"></rect><rect x="176.4" y="276.99" width="4" height="92.37" style="fill:#263238"></rect><path d="M214.62,281.92h-6V273a.51.51,0,0,0-.48-.53H181.89a.51.51,0,0,0-.49.53v7.44h-6V273a6.52,6.52,0,0,1,6.49-6.53h26.25a6.51,6.51,0,0,1,6.48,6.53Z" style="fill:#455a64"></path><path d="M176.08,474.47a6.22,6.22,0,1,1-6.22-6.22A6.23,6.23,0,0,1,176.08,474.47Z" style="fill:#263238"></path><path d="M229.72,474.47a6.22,6.22,0,1,1-6.21-6.22A6.22,6.22,0,0,1,229.72,474.47Z" style="fill:#263238"></path><path d="M239,427.69h0V381.94h0a4.79,4.79,0,0,1,4.79,4.79V422.9A4.8,4.8,0,0,1,239,427.69Z" style="fill:#263238"></path><rect x="150.76" y="343.7" width="90.41" height="127.73" rx="13.97" style="fill:#455a64"></rect><path d="M241.09,359.7c0,.14-20.24.26-45.21.26s-45.23-.12-45.23-.26,20.25-.26,45.23-.26S241.09,359.56,241.09,359.7Z" style="fill:#263238"></path><path d="M241.09,373.19c0,.14-20.24.26-45.21.26s-45.23-.12-45.23-.26,20.25-.26,45.23-.26S241.09,373,241.09,373.19Z" style="fill:#263238"></path><path d="M241.09,386.68c0,.14-20.24.26-45.21.26s-45.23-.12-45.23-.26,20.25-.26,45.23-.26S241.09,386.53,241.09,386.68Z" style="fill:#263238"></path><path d="M241.09,400.17c0,.14-20.24.26-45.21.26s-45.23-.12-45.23-.26,20.25-.26,45.23-.26S241.09,400,241.09,400.17Z" style="fill:#263238"></path><path d="M241.09,413.66c0,.14-20.24.26-45.21.26s-45.23-.12-45.23-.26,20.25-.26,45.23-.26S241.09,413.51,241.09,413.66Z" style="fill:#263238"></path><path d="M241.09,427.15c0,.14-20.24.26-45.21.26s-45.23-.12-45.23-.26,20.25-.27,45.23-.27S241.09,427,241.09,427.15Z" style="fill:#263238"></path><path d="M241.09,440.63c0,.15-20.24.26-45.21.26s-45.23-.11-45.23-.26,20.25-.26,45.23-.26S241.09,440.49,241.09,440.63Z" style="fill:#263238"></path><path d="M241.09,454.12c0,.15-20.24.26-45.21.26s-45.23-.11-45.23-.26,20.25-.26,45.23-.26S241.09,454,241.09,454.12Z" style="fill:#263238"></path><rect x="185.86" y="379.09" width="20.21" height="3.66" style="fill:#fff"></rect><path d="M83.33,106.13a11.53,11.53,0,0,0-1.67,6.53c0,2.25,1.55,6.82,5.55,7-1.06,6.44,3.06,11.2,9.92,11.21s14.72-11.76,21.08-14.35l18.45-4.87c1.63-.38,2.29-2.35,2.26-4s-.46-3.39.13-5c.81-2.13,3.28-3.27,4.13-5.4,1-2.41-.53-5.08-2.24-7s-3.81-3.8-4.35-6.34c-.5-2.33.39-5-.77-7-1.43-2.56-5.19-2.89-6.93-5.25C128,70.52,127.78,69,127,67.88c-1.43-2-4.16-2.47-6.57-2.21s-4.73,1.13-7.14,1.31c-3.32.24-6.74-.83-9.92.13-3.51,1.06-5.65,4.17-7.93,7.19l-3,3.49a13.87,13.87,0,0,1-2,1.62,23.16,23.16,0,0,0-3.76,2.41,5.87,5.87,0,0,0,.41,8.45,6.28,6.28,0,0,0-4.21,6.17s-.33,3.06,1.61,4.42A4.22,4.22,0,0,0,83.33,106.13Z" style="fill:#263238"></path><path d="M95.7,112.37A85.08,85.08,0,0,1,92,98.1a29.86,29.86,0,0,1,1.17-14.57c.26-.7,2.48-5.39,3.22-5.32.53.05-.84,4.43-.57,4.89,2.56,4.4,3.26,9.69,2.85,14.77a66.54,66.54,0,0,1-3,14.5" style="fill:#263238"></path><path d="M107.86,155.32C97,154,95.71,136.45,95.71,136.45l-.5-42.86c-.4-12.34,6.45-22.86,18.8-22.92l1.14.06A22.09,22.09,0,0,1,136,92.18c.28,10.7.46,22.52.09,28.23-.78,11.82-12.71,13-12.71,13a39.32,39.32,0,0,0-.11,6.22c.68,12.57-12.4,15.93-15.45,15.66Z" style="fill:#ffbe9d"></path><path d="M123.42,133.44a28.57,28.57,0,0,1-15.16-5.38s3.29,8.8,15.15,8.37Z" style="fill:#eb996e"></path><path d="M132.92,101.88a1.7,1.7,0,0,1-1.72,1.62,1.62,1.62,0,0,1-1.66-1.62,1.7,1.7,0,0,1,1.72-1.62A1.62,1.62,0,0,1,132.92,101.88Z" style="fill:#263238"></path><path d="M133.24,97c-.22.21-1.45-.8-3.27-.9s-3.19.75-3.38.51.14-.49.75-.88a4.64,4.64,0,0,1,5.31.31C133.18,96.45,133.35,96.86,133.24,97Z" style="fill:#263238"></path><path d="M115.83,101.88a1.7,1.7,0,0,1-1.72,1.62,1.62,1.62,0,0,1-1.66-1.62,1.7,1.7,0,0,1,1.72-1.62A1.62,1.62,0,0,1,115.83,101.88Z" style="fill:#263238"></path><path d="M115.4,96.73c-.23.21-1.46-.8-3.27-.9s-3.2.75-3.39.52.14-.49.75-.89a4.67,4.67,0,0,1,2.72-.68,4.49,4.49,0,0,1,2.59,1C115.33,96.23,115.5,96.64,115.4,96.73Z" style="fill:#263238"></path><path d="M121.17,111.05a12.13,12.13,0,0,1,3-.37c.47,0,.91-.09,1-.41a2.39,2.39,0,0,0-.24-1.39c-.38-1.15-.77-2.35-1.18-3.61-1.64-5.13-2.8-9.35-2.59-9.41s1.7,4,3.34,9.18c.39,1.27.77,2.47,1.12,3.63a2.69,2.69,0,0,1,.15,1.83,1.18,1.18,0,0,1-.8.64,3,3,0,0,1-.8.07A11.33,11.33,0,0,1,121.17,111.05Z" style="fill:#263238"></path><path d="M115.75,112c.3,0,.2,2,1.81,3.47s3.73,1.38,3.73,1.66c0,.12-.49.36-1.38.33a4.9,4.9,0,0,1-3.12-1.27,4.31,4.31,0,0,1-1.39-2.9C115.37,112.48,115.62,112,115.75,112Z" style="fill:#263238"></path><path d="M115.69,89.35c-.2.48-2,.15-4.15.3s-3.91.63-4.17.17c-.11-.22.21-.67.94-1.11a6.83,6.83,0,0,1,3.12-.91,6.91,6.91,0,0,1,3.21.55C115.41,88.71,115.78,89.12,115.69,89.35Z" style="fill:#263238"></path><path d="M132.82,90.87c-.35.39-1.58-.1-3.08-.2s-2.8.13-3.07-.32c-.11-.22.11-.62.69-1a4.47,4.47,0,0,1,5,.42C132.82,90.24,133,90.67,132.82,90.87Z" style="fill:#263238"></path><path d="M95.71,102.4c-.2-.09-8-2.84-8.18,5.26s8,6.61,8,6.38S95.71,102.4,95.71,102.4Z" style="fill:#ffbe9d"></path><path d="M93.14,110.92s-.14.09-.38.2a1.47,1.47,0,0,1-1.06,0c-.85-.34-1.54-1.71-1.55-3.17a4.75,4.75,0,0,1,.44-2,1.64,1.64,0,0,1,1.09-1.07.71.71,0,0,1,.82.41c.1.23,0,.39.09.4s.18-.13.12-.46a.88.88,0,0,0-.31-.52,1,1,0,0,0-.77-.22,2,2,0,0,0-1.5,1.22,4.71,4.71,0,0,0-.54,2.25c0,1.63.82,3.18,2,3.54a1.55,1.55,0,0,0,1.3-.18C93.12,111.11,93.17,110.93,93.14,110.92Z" style="fill:#eb996e"></path><path d="M131,78.69c1.33-.71-2.56-5-5.76-6.51-4.84-2.27-12.26-3.73-16.77-2.51-5.43,1.46-10,4.09-12.73,9a31.93,31.93,0,0,0-3.79,16.23,9.68,9.68,0,0,0,1.08,5c1.11,1.81,3.27,3,3.14,5.43a3.39,3.39,0,0,0,.81,2.49c1.46,1.59,3.3.14,4.15-1.34,1.82-3.15,2.07-6.94,2.27-10.57a23.71,23.71,0,0,0-.41-7.71c-.38-1.36-1-2.64-1.31-4a4.88,4.88,0,0,1,.63-4,4.68,4.68,0,0,1,.67-.65,8.41,8.41,0,0,1,8.4-1.49c4.54,1.67,12.3,4.18,14.36,2.66,3-2.19,3.68-3.63,3.68-3.63Z" style="fill:#263238"></path><path d="M108.87,68.57a17.79,17.79,0,0,1,13.68.93,9.24,9.24,0,0,1,4.81,5.44c.65,2.41-.41,5.35-2.73,6.26l-.16.1c-3.48,1.12-5.72.62-9.15-.61-2.89-1-5.44-2.87-8.34-3.89a16.39,16.39,0,0,0-9.63-.41A26.91,26.91,0,0,1,108.87,68.57Z" style="fill:#263238"></path><path d="M93.46,76.58c.07.07.72-.71,2-1.62A11.71,11.71,0,0,1,98,73.64a7.53,7.53,0,0,1,3.29-.55,11,11,0,0,1,5.65,2.33c1.25,1,1.83,1.83,1.91,1.77s-.09-.25-.35-.62a8.6,8.6,0,0,0-1.31-1.44,10.48,10.48,0,0,0-5.86-2.58,7.69,7.69,0,0,0-3.52.63,10.57,10.57,0,0,0-2.5,1.47A6,6,0,0,0,93.46,76.58Z" style="fill:#455a64"></path><path d="M118.15,67.83a21.28,21.28,0,0,0,2.14.81,17.68,17.68,0,0,1,8.32,6.85c.76,1.18,1.12,2,1.2,2a6.27,6.27,0,0,0-.87-2.15,15.44,15.44,0,0,0-8.52-7A6.55,6.55,0,0,0,118.15,67.83Z" style="fill:#455a64"></path><path d="M89.28,438.23,69.68,454s10.81,24,7.47,27.27l-33.3-35.69,29.53-25.82Z" style="fill:#407BFF"></path><g style="opacity:0.6000000000000001"><path d="M61.41,441.2a2,2,0,0,0-2.63.45,1.91,1.91,0,0,0,.42,2.6,2.11,2.11,0,0,0,2.78-.48,2,2,0,0,0-.74-2.66" style="fill:#fff"></path></g><g style="opacity:0.6000000000000001"><path d="M43.85,445.58l3-2.61,31,35.59a3.38,3.38,0,0,1-.72,3.13Z" style="fill:#fff"></path></g><path d="M70.39,454.44c-.19.15-1-.68-2.4-1.07s-2.51-.2-2.58-.43,1.2-.86,2.82-.36S70.59,454.33,70.39,454.44Z" style="fill:#263238"></path><path d="M72.14,459.69c-.14.19-1.13-.32-2.42-.27s-2.25.57-2.4.38.78-1.18,2.38-1.21S72.3,459.54,72.14,459.69Z" style="fill:#263238"></path><path d="M69.4,465.9c-.18-.13.51-1.16,1.9-1.55s2.5.11,2.42.32-1.06.14-2.2.48S69.58,466.06,69.4,465.9Z" style="fill:#263238"></path><path d="M74.45,450.35c-.22.06-.69-1-1.64-1.94s-2-1.47-1.89-1.7,1.38,0,2.48,1.12S74.67,450.31,74.45,450.35Z" style="fill:#263238"></path><g style="opacity:0.30000000000000004"><polygon points="85.4 441.35 81.91 444.17 65.17 426.95 69.41 423.22 85.4 441.35"></polygon></g><path d="M78.35,447.09c-.07.07-.8-.55-1.59-1.85a11.51,11.51,0,0,1-1.08-2.45,10.63,10.63,0,0,1-.35-1.55,2.75,2.75,0,0,1,0-.93,1,1,0,0,1,.89-.92,1.31,1.31,0,0,1,1.09.44,2.87,2.87,0,0,1,.5.77,8,8,0,0,1,.6,1.49,8.75,8.75,0,0,1,.36,2.67,4,4,0,0,1-.56,2.39c-.13,0,.07-.93,0-2.37a9.27,9.27,0,0,0-1.08-3.8c-.24-.48-.52-.81-.79-.76-.09,0-.12,0-.17.22a2.38,2.38,0,0,0,0,.68,12.57,12.57,0,0,0,.29,1.46,12.76,12.76,0,0,0,.86,2.38A16.62,16.62,0,0,1,78.35,447.09Z" style="fill:#263238"></path><path d="M77.89,447.08c-.08,0,.25-.95,1.36-2a8.17,8.17,0,0,1,2.24-1.5,8.07,8.07,0,0,1,1.53-.5,2,2,0,0,1,2,.37,1.13,1.13,0,0,1,.15,1.22,3.4,3.4,0,0,1-.51.78,5.65,5.65,0,0,1-1.25,1.07,5.57,5.57,0,0,1-2.59.87c-1.58.1-2.45-.46-2.4-.53a20.68,20.68,0,0,0,2.33-.05,5.67,5.67,0,0,0,2.24-.92,5.2,5.2,0,0,0,1-1c.34-.4.53-.82.36-.93a1.37,1.37,0,0,0-1.16-.12,7.58,7.58,0,0,0-1.4.4,8.82,8.82,0,0,0-2.15,1.24C78.51,446.38,78,447.16,77.89,447.08Z" style="fill:#263238"></path><path d="M88.1,441.44,90,466.53s-24.9,8.53-25,13.2l48.81-.12-1.36-39.2Z" style="fill:#407BFF"></path><g style="opacity:0.6000000000000001"><path d="M105,463.81a2,2,0,0,1,1.47,2.22,1.93,1.93,0,0,1-2.19,1.48,2.1,2.1,0,0,1-1.54-2.36,2,2,0,0,1,2.44-1.28" style="fill:#fff"></path></g><g style="opacity:0.6000000000000001"><path d="M113.81,479.61l-.14-3.95-47.13,1.75a3.37,3.37,0,0,0-1.79,2.67Z" style="fill:#fff"></path></g><path d="M89.2,466.31c0,.24,1.21.3,2.42,1s1.86,1.69,2.08,1.59-.2-1.46-1.67-2.31S89.14,466.09,89.2,466.31Z" style="fill:#263238"></path><path d="M84.17,468.63c0,.23,1,.6,1.85,1.57s1.13,2,1.36,2,.34-1.37-.74-2.56S84.17,468.4,84.17,468.63Z" style="fill:#263238"></path><path d="M81.51,474.87c.22,0,.5-1.16-.16-2.44s-1.8-1.76-1.89-1.56.62.88,1.15,1.94S81.27,474.85,81.51,474.87Z" style="fill:#263238"></path><path d="M89.4,460.55c.11.21,1.19-.16,2.54-.12s2.42.42,2.53.21-.93-1-2.52-1S89.28,460.36,89.4,460.55Z" style="fill:#263238"></path><g style="opacity:0.30000000000000004"><polygon points="89.2 455.81 89.53 460.28 113.13 459.87 112.96 455.09 89.2 455.81"></polygon></g><path d="M89.11,455.48a4.53,4.53,0,0,0,2.44-.11,10.86,10.86,0,0,0,2.53-.89,11.55,11.55,0,0,0,1.37-.8,3.09,3.09,0,0,0,.72-.6,1,1,0,0,0,0-1.27,1.31,1.31,0,0,0-1.06-.51,3.28,3.28,0,0,0-.91.17,8.35,8.35,0,0,0-1.5.58,8.64,8.64,0,0,0-2.19,1.57c-1.09,1.09-1.44,2-1.36,2s.63-.7,1.75-1.61a10,10,0,0,1,2.13-1.31,9.34,9.34,0,0,1,1.38-.49c.51-.16,1-.18,1.1.05,0,.08,0,.12,0,.27A2.17,2.17,0,0,1,95,453a11.81,11.81,0,0,1-1.26.79,13.25,13.25,0,0,1-2.33,1A17.14,17.14,0,0,0,89.11,455.48Z" style="fill:#263238"></path><path d="M89.44,455.81a4,4,0,0,0,.55-2.39,8.06,8.06,0,0,0-.44-2.66,9.07,9.07,0,0,0-.68-1.46,2,2,0,0,0-1.61-1.17,1.15,1.15,0,0,0-1,.72,3.52,3.52,0,0,0-.22.91,5.65,5.65,0,0,0,.06,1.65,5.72,5.72,0,0,0,1.15,2.48c1,1.22,2,1.47,2,1.39s-.77-.55-1.55-1.74a5.65,5.65,0,0,1-.86-2.26,4.82,4.82,0,0,1,0-1.42c0-.52.23-.94.43-.9s.67.36.88.77a7.58,7.58,0,0,1,.66,1.3,8.74,8.74,0,0,1,.57,2.42C89.52,454.87,89.3,455.78,89.44,455.81Z" style="fill:#263238"></path><path d="M69.94,260.84s5.29,75.12,7.35,92.35c1.31,10.95,7.63,103,7.63,103l31.85-1-5.13-145.83V264.67Z" style="fill:#263238"></path><path d="M65.67,421.6,86.75,443s63.83-62.2,66.42-66.86,1.82-62.2,1.82-62.2l-1.86-51.56-45.58,2.32,4.5,51.29,6.07,47.19Z" style="fill:#263238"></path><path d="M123.58,406.74l-.65.68-2,2-7.43,7.4L86.9,443.13l-.16.16-.15-.16-21.1-21.35-.17-.17.16-.18,17-19L118,363l0,.18c-1.91-16.1-3.5-29.53-4.61-39-.54-4.7-1-8.39-1.26-10.93-.13-1.25-.24-2.21-.31-2.89,0-.31,0-.55-.07-.74a.69.69,0,0,1,0-.25,2.24,2.24,0,0,1,0,.25l.11.74c.09.67.22,1.63.38,2.87.32,2.54.79,6.23,1.38,10.91l4.79,38.94,0,.1-.07.08L82.88,402.81l-17,19v-.34c7.56,7.67,14.66,14.9,21.05,21.39h-.31l26.78-26.22,7.52-7.31,2-1.92C123.33,406.94,123.58,406.74,123.58,406.74Z" style="fill:#455a64"></path><path d="M128.11,367.64a24.17,24.17,0,0,1-4.65-2,24.65,24.65,0,0,1-4.41-2.47,25,25,0,0,1,4.64,2A25.05,25.05,0,0,1,128.11,367.64Z" style="fill:#455a64"></path><path d="M115.53,306.9a12,12,0,0,1-1.92.19l-5.13.27h-.22v-.23c0-2.65,0-5.89-.09-9.39-.08-4.54-.26-8.64-.39-11.62l-.15-3.52a5.76,5.76,0,0,1,0-1.3,7.12,7.12,0,0,1,.19,1.29c.09.82.21,2,.32,3.51.23,3,.46,7.09.55,11.63.07,3.51,0,6.75,0,9.41l-.22-.22,5.14-.09A10.91,10.91,0,0,1,115.53,306.9Z" style="fill:#455a64"></path><path d="M113.31,283s.17-.09.5-.05a2.2,2.2,0,0,1,1.25.63,2.43,2.43,0,0,1,.75,1.95,2.45,2.45,0,0,1-4.16,1.3,2.46,2.46,0,0,1-.49-2,2.18,2.18,0,0,1,.66-1.23c.25-.22.44-.26.45-.24a2.87,2.87,0,0,0-.75,1.52,2.17,2.17,0,0,0,.49,1.66,2,2,0,0,0,3.33-1,2.16,2.16,0,0,0-.55-1.64A3,3,0,0,0,113.31,283Z" style="fill:#455a64"></path><path d="M95,137.35s8.28,9.05,30,1.83l13.71,20,14.09,114.15-46.19,7.45-36-5.71L82.09,159.23Z" style="fill:#e0e0e0"></path><path d="M97,138.54c1.76,3.86,6,12.94,6,12.94s-10.72,71.16-11.85,82.41c-1.24,12.39,6.43,56.27,6.43,56.27L60,284.28l10.58-116-5.13-22.39a119.58,119.58,0,0,1,18.26-5.69l7.89-1.12,2.18-3.61,1.45-2.18Z" style="fill:#407BFF"></path><g style="opacity:0.30000000000000004"><path d="M98.94,225.32c-4.6-.1-18,3.76-22.56,4.26-4.73.51-7.9,1.12-11.76,3.89L64,239.54c2.68,1.31,5.69,1.63,8.63,2.13a10.44,10.44,0,0,0,8.45-1.86c1.25-1.05,2.16-2.49,3.56-3.33s2.66-2,4.13-1.75C99.89,236.89,102.71,227.33,98.94,225.32Z"></path></g><path d="M92.46,139.82a4.52,4.52,0,0,1,.35,1c.19.68.45,1.66.76,2.88.62,2.44,1.45,5.82,2.32,9.56.32,1.36.63,2.68.91,3.91h-.48a15.27,15.27,0,0,1,1.44-3.75,7.93,7.93,0,0,1,1.92-2.55,1.86,1.86,0,0,1,1.19-.36,1.54,1.54,0,0,1,.86.33c.41.35.36.69.35.67s-.07-.28-.45-.53a1.48,1.48,0,0,0-1.77.15,8.13,8.13,0,0,0-1.72,2.49,15.85,15.85,0,0,0-1.34,3.66l-.24,1-.24-1c-.29-1.22-.61-2.54-.93-3.91-.88-3.73-1.65-7.12-2.18-9.58-.26-1.23-.47-2.23-.6-2.92A4.19,4.19,0,0,1,92.46,139.82Z" style="fill:#263238"></path><path d="M69.56,235.81l9.53,2.77a53.73,53.73,0,0,1,3.64,15.52c.56,8.3-3.08,68.47-3.08,68.47l-30.54-1.32-.93-2.79a11.11,11.11,0,0,1-.54-4.4c.76-9.88,2.12-44.2,9.54-64.17C60.72,240.37,69.56,235.81,69.56,235.81Z" style="fill:#455a64"></path><path d="M80.24,140.36s2.89,5.47,2.55,17.52-17.05,95.88-17.05,95.88l10.65.94s10.83-69.64,11.39-76.64,4.48-32.55,0-38.13C87.78,139.93,83.34,138,80.24,140.36Z" style="fill:#455a64"></path><path d="M61.88,242.12S50.67,256.07,47,282.4l4.94,1.07Z" style="fill:#455a64"></path><path d="M68.37,248.14a1.85,1.85,0,0,1-.05.52c-.06.39-.13.87-.22,1.45-.2,1.26-.49,3.07-.8,5.33-.66,4.5-1.26,10.78-2.55,17.63-.34,1.71-.67,3.37-1.07,5a11.79,11.79,0,0,1-1.94,4.39,4.89,4.89,0,0,1-3.85,2,21.57,21.57,0,0,1-3.73-.44c-2.26-.39-4-.92-5.28-1.14l-1.44-.28a1.65,1.65,0,0,1-.49-.13,1.78,1.78,0,0,1,.51,0l1.46.19c1.27.16,3.06.64,5.3,1a21.79,21.79,0,0,0,3.66.37,4.43,4.43,0,0,0,3.48-1.83,11.4,11.4,0,0,0,1.83-4.21c.38-1.58.72-3.25,1-4.95,1.28-6.82,2-13.09,2.69-17.59.36-2.25.71-4.06,1-5.31.13-.57.23-1,.32-1.43A1.89,1.89,0,0,1,68.37,248.14Z" style="fill:#263238"></path><path d="M79.31,239.14a11.22,11.22,0,0,1-.09,1.65c-.11,1.15-.26,2.65-.43,4.47-.1,1-.21,2-.32,3.08a29.2,29.2,0,0,1-.5,3.56,5.79,5.79,0,0,1-2.16,3.39,5.05,5.05,0,0,1-4.2.9,4.82,4.82,0,0,1-3.32-2.75,8.24,8.24,0,0,1-.36-4c.25-2.51.6-4.74,1-6.61s.71-3.36,1-4.39a10.61,10.61,0,0,1,.49-1.58,10.73,10.73,0,0,1-.29,1.63c-.21,1-.51,2.54-.81,4.4s-.62,4.1-.84,6.59a7.85,7.85,0,0,0,.35,3.75,4.33,4.33,0,0,0,3,2.44,4.53,4.53,0,0,0,3.78-.81,5.22,5.22,0,0,0,2-3.09A30.42,30.42,0,0,0,78,248.3c.14-1.1.26-2.13.38-3.08.24-1.81.44-3.31.6-4.45A9.36,9.36,0,0,1,79.31,239.14Z" style="fill:#263238"></path><path d="M79.73,322.64a11.46,11.46,0,0,1-1.13-1.1c-.7-.72-1.71-1.76-3-3s-2.85-2.72-4.64-4.28c-.9-.78-1.85-1.58-2.86-2.4A8.86,8.86,0,0,0,64.74,310a3.38,3.38,0,0,0-1.87.08,5.32,5.32,0,0,0-1.61,1l-2.82,2.43-4.81,4.12-3.28,2.73a11.15,11.15,0,0,1-1.24,1,8.12,8.12,0,0,1,1.11-1.11l3.16-2.86,4.74-4.2,2.82-2.47a6.07,6.07,0,0,1,1.76-1.06,3.83,3.83,0,0,1,2.15-.1,9.25,9.25,0,0,1,3.57,2c1,.82,2,1.64,2.85,2.43,1.79,1.59,3.33,3.09,4.59,4.38s2.23,2.38,2.89,3.15A8.33,8.33,0,0,1,79.73,322.64Z" style="fill:#263238"></path><path d="M71.12,256.66c.14,0-1.39,11.84-3.42,26.41s-3.79,26.35-3.93,26.33,1.38-11.84,3.41-26.41S71,256.64,71.12,256.66Z" style="fill:#263238"></path><path d="M75.71,250.92a5.85,5.85,0,0,1-.18-.66,2.83,2.83,0,0,0-1-1.4,2.6,2.6,0,0,0-2.43-.32,2.54,2.54,0,0,0,0,4.76,2.61,2.61,0,0,0,2.43-.33,2.78,2.78,0,0,0,1-1.4,5.24,5.24,0,0,1,.18-.65s.09.25,0,.7a2.82,2.82,0,0,1-1,1.65,3,3,0,0,1-2.81.48,3,3,0,0,1,0-5.66,2.91,2.91,0,0,1,2.81.48,2.76,2.76,0,0,1,1,1.65C75.8,250.67,75.74,250.92,75.71,250.92Z" style="fill:#263238"></path><path d="M207.27,253.69l15.51,11.92-1.46,12.19-.31,1.86-5.21,3.23h-9.06s-1.45-3.75,1.88-3.44c0,0-1.64-2.5,3-3.12s5.54-2.18,5.54-2.18l-.41-2.19-1.67-2.08-1.57-1.59-8.73-9.76Z" style="fill:#ffbe9d"></path><path d="M178.4,239.42c0,.11,18,18.61,18,18.61l10.89-4.34-13.08-26.91-10.91-3.88-4.88,8.69Z" style="fill:#ffbe9d"></path><path d="M195.86,257.23a46.66,46.66,0,0,0,5.37,7,33,33,0,0,0,6.45,4.37s3.64,9.58,6,9.16,3.23-1.67,1.87-4.27-4.47-12.18-4.47-12.18l-5.76-11.45Z" style="fill:#ffbe9d"></path><path d="M150.05,146.5s6.63,2,10.45,10.92,19.11,40.88,19.11,40.88l16.25,29.2s-7.33,0-12.74,4.14-4.78,9.56-4.78,9.56-4.72-1-5.39-3.82a12.67,12.67,0,0,1,0-5.42l-5.76-7.33-3.5-7-11-18.54-7.45-29.56Z" style="fill:#407BFF"></path><path d="M159.22,294.52s-5.91-61.06-5.63-61.79-.64-35.74,0-36.28-3.54-49.95-3.54-49.95l-21.77-6.72.29,0-5-5.27s-6.08,20.18-6,20.51c1.76,6.95,8.07,110.3,8.07,110.3,0,.74,2.48,29.16,2.48,29.16Z" style="fill:#407BFF"></path><path d="M152.62,199.64a4,4,0,0,1-.74.57l-2.19,1.55-.06,0-.06,0L138,196.17l-.12-.06V196c-.28-3.76-.6-8-.94-12.5-.3-4.22-.59-8.23-.84-11.82l0-.21.2,0a29.58,29.58,0,0,1,12.36.08,27.81,27.81,0,0,1,3.4,1,4.62,4.62,0,0,1,1.15.51s-.42-.13-1.2-.36a33.85,33.85,0,0,0-3.41-.84,30.36,30.36,0,0,0-12.19.1l.18-.25c.27,3.6.57,7.6.89,11.82.32,4.49.62,8.75.89,12.5l-.13-.19,11.46,5.79h-.13l2.26-1.44A4.74,4.74,0,0,1,152.62,199.64Z" style="fill:#263238"></path><path d="M153,164a7.75,7.75,0,0,1,.16,1.48c.07,1,.14,2.34.2,4,.12,3.42.15,8.15.12,13.37s0,9.95,0,13.37c0,1.63,0,3,0,4.05a7.9,7.9,0,0,1-.05,1.49,7.91,7.91,0,0,1-.16-1.48c-.07-1-.13-2.34-.19-4.05-.13-3.43-.16-8.16-.13-13.38s.06-9.94,0-13.36c0-1.64,0-3,0-4.05A8.66,8.66,0,0,1,153,164Z" style="fill:#263238"></path><path d="M186.92,218.47c0,.1-1.1.38-2.77,1.15a21,21,0,0,0-5.85,4.09,20.72,20.72,0,0,0-4.09,5.84c-.78,1.67-1.07,2.79-1.16,2.77a2.55,2.55,0,0,1,.13-.81,13.88,13.88,0,0,1,.69-2.11A18.7,18.7,0,0,1,184,219.29a13.83,13.83,0,0,1,2.1-.69A3,3,0,0,1,186.92,218.47Z" style="fill:#263238"></path><path d="M181.94,217.28a46.9,46.9,0,0,0-5.48,3.47,49.56,49.56,0,0,0-4.6,4.57,5.77,5.77,0,0,1,1-1.65,18.84,18.84,0,0,1,3.26-3.33,19.54,19.54,0,0,1,4-2.45A5.59,5.59,0,0,1,181.94,217.28Z" style="fill:#263238"></path><path d="M128.57,139.82a6.34,6.34,0,0,1-.07,1.36c-.07.87-.2,2.12-.38,3.67-.35,3.1-.89,7.38-1.63,12.08-.26,1.7-.54,3.33-.81,4.84l-.13.72-.34-.65a48.51,48.51,0,0,0-2.47-4.25c-.4-.62-.8-1.19-1.18-1.72a6.13,6.13,0,0,0-1.14-1.33,1.77,1.77,0,0,0-1.24-.47,1.53,1.53,0,0,0-.91.43,1.16,1.16,0,0,0-.31.79s-.23-.37.19-.91a1.67,1.67,0,0,1,1-.55,2,2,0,0,1,1.47.46,6.55,6.55,0,0,1,1.24,1.36c.4.52.82,1.09,1.24,1.71a42.2,42.2,0,0,1,2.55,4.25l-.46.07c.25-1.51.51-3.14.79-4.83.73-4.7,1.33-9,1.78-12,.22-1.46.4-2.69.54-3.65A6.51,6.51,0,0,1,128.57,139.82Z" style="fill:#263238"></path><g style="opacity:0.30000000000000004"><path d="M125.27,161.41l-1,4.4-3.13-8.76a6,6,0,0,0-.79-1.65,2,2,0,0,0-1.54-.87,1.34,1.34,0,0,1,2.24,0C122.26,155.89,125.27,161.41,125.27,161.41Z"></path></g><g style="opacity:0.30000000000000004"><path d="M153.43,200c2.73-9.77,2.16-22-.46-31.82Z"></path></g><path d="M153,177.36a13.81,13.81,0,0,1-2.38-.28c-1.46-.2-3.48-.44-5.72-.57s-4.28-.11-5.76-.07a13.2,13.2,0,0,1-2.39,0,9.09,9.09,0,0,1,2.37-.38,41.53,41.53,0,0,1,11.56.65A8.87,8.87,0,0,1,153,177.36Z" style="fill:#263238"></path><path d="M154,248.79a4.18,4.18,0,0,1-1-.46c-.62-.31-1.5-.81-2.57-1.44a94.29,94.29,0,0,1-15.63-11.58c-.92-.85-1.65-1.55-2.13-2.05s-.75-.78-.72-.81a4.3,4.3,0,0,1,.86.66L135,235c1.89,1.61,4.54,3.79,7.58,6.05s5.91,4.16,8,5.5l2.48,1.58A4.48,4.48,0,0,1,154,248.79Z" style="fill:#263238"></path><path d="M66.27,145.56s-4.68.86-9.12,10.19-15.86,40.32-16.6,42.39l23.34,15.52L77.06,174.6Z" style="fill:#407BFF"></path><path d="M78.45,229.72l.2-13.24-15.07-5.11L66.42,202,43.2,191S32.81,218.21,32.87,223.2c0,1.84,4.16,11.22,12.81,12.06,5.63.55,18.36,1.29,26.93,1.6A5.71,5.71,0,0,0,78.45,229.72Z" style="fill:#407BFF"></path><path d="M74.19,181.11c.14,0-1.9,6.93-4.55,15.38s-4.91,15.27-5,15.23,1.9-6.93,4.55-15.39S74.05,181.06,74.19,181.11Z" style="fill:#263238"></path><path d="M70.91,213.85a3.66,3.66,0,0,1-1-.22c-.62-.18-1.51-.45-2.62-.8s-2.37-.86-3.83-1.24a26.15,26.15,0,0,0-4.82-.89,21.78,21.78,0,0,0-8.79,1c-2.16.75-3.37,1.52-3.42,1.43a3.81,3.81,0,0,1,.82-.58,17.09,17.09,0,0,1,2.48-1.2,20.39,20.39,0,0,1,9-1.13,30.14,30.14,0,0,1,8.73,2.31c1.08.39,2,.71,2.56.95A3.77,3.77,0,0,1,70.91,213.85Z" style="fill:#263238"></path><path d="M56,203.13a4.93,4.93,0,0,1,1.78.54,12.92,12.92,0,0,1,3.69,2.57,12.7,12.7,0,0,1,2.55,3.7,4.47,4.47,0,0,1,.54,1.78,21,21,0,0,0-3.46-5.11A21.26,21.26,0,0,0,56,203.13Z" style="fill:#263238"></path><path d="M74,168.12c-.1,0,.08-1.25,0-3.26a23.8,23.8,0,0,0-5.41-14.4c-1.28-1.55-2.24-2.37-2.17-2.44s.27.16.71.52a14.92,14.92,0,0,1,1.74,1.68A21,21,0,0,1,71,153.08,24.63,24.63,0,0,1,73,157a23.12,23.12,0,0,1,1.12,4.25,19.64,19.64,0,0,1,.26,3.57,16.5,16.5,0,0,1-.19,2.41A3.28,3.28,0,0,1,74,168.12Z" style="fill:#263238"></path><g style="opacity:0.30000000000000004"><path d="M54.73,208.28a15.82,15.82,0,0,0-9.57,3.64,1.09,1.09,0,0,0-.48.73.79.79,0,0,0,.81.72,2.53,2.53,0,0,0,1.15-.38,22.86,22.86,0,0,1,17.54-1.38l.32-.29A15.79,15.79,0,0,0,54.73,208.28Z"></path></g><path d="M78.65,232.4s0,.12-.05.36a4.28,4.28,0,0,1-.29,1,5.43,5.43,0,0,1-5.17,3.33c-.94,0-1.94,0-3,0-2.11-.05-4.42-.14-6.84-.28-4.85-.27-9.22-.62-12.39-.91-1.58-.15-2.86-.28-3.75-.38a6.65,6.65,0,0,1-1.36-.22,7.26,7.26,0,0,1,1.38,0l3.76.21,12.39.76c2.42.14,4.72.24,6.82.32l3,.08a4.92,4.92,0,0,0,2.44-.47,5.24,5.24,0,0,0,2.56-2.51,6,6,0,0,0,.37-.94C78.58,232.51,78.63,232.39,78.65,232.4Z" style="fill:#263238"></path><path d="M81.79,231.62l13,.48c1.3.05,2.51-1.14,3.07-3l10.18-35.71c.65-2.46-.72-4.45-2.94-4.59l-17.2-1.08c-2.77,0-4.25,1.19-4.74,3.27l-6.7,28.26C75,225.25,77.72,231.47,81.79,231.62Z" style="fill:#263238"></path><path d="M70.65,214.77l3.46-7.33,5.69-1.9-1.74,7c2.23,1.08,5.58,1.64,7.51.57s9.48-8.57,10.9-7.85,2.7,2.44,1.4,4.09-8.38,6.76-6.92,8.27,9.62-5.11,12-4.62,3.86,1.89,2.52,2.91-4.62,4.31-5.2,5.75c.14,1.8,1,4.35.21,4.8a28.69,28.69,0,0,1-6,2.08,62.69,62.69,0,0,0-6.27,2.34,14,14,0,0,1-9.85.22l-1.63-.57a6.3,6.3,0,0,1-4.21-6l.06-5.4Z" style="fill:#ffbe9d"></path><path d="M79.39,213.08a11.22,11.22,0,0,0,.55-1.73l1.28-4.76c.54-2,1.16-4.43,1.84-7.07.34-1.34.69-2.74,1.06-4.18s.57-3.08,1.56-4.15,2.68-1.12,4.11-1.06l4.3.33,7.29.52,4.92.3a10.42,10.42,0,0,0,1.81,0,10.56,10.56,0,0,0-1.79-.26l-4.9-.49-7.29-.65-4.31-.36a9.77,9.77,0,0,0-2.34.1,4,4,0,0,0-2.23,1.13A5.23,5.23,0,0,0,84.12,193c-.21.76-.38,1.5-.56,2.22-.36,1.45-.7,2.86-1,4.2-.64,2.64-1.22,5.05-1.71,7.1s-.82,3.57-1.11,4.81A10.89,10.89,0,0,0,79.39,213.08Z" style="fill:#455a64"></path><path d="M95,195.81a1.28,1.28,0,1,0,1.27-1.28A1.28,1.28,0,0,0,95,195.81Z" style="fill:#fff"></path></g></svg>